<?xml version="1.0" standalone="no"?><!DOCTYPE svg PUBLIC "-//W3C//DTD SVG 1.1//EN" "http://www.w3.org/Graphics/SVG/1.1/DTD/svg11.dtd"><svg t="1701916371576" class="icon" viewBox="0 0 1024 1024" version="1.1" xmlns="http://www.w3.org/2000/svg" p-id="3167" xmlns:xlink="http://www.w3.org/1999/xlink" width="200" height="200"><path d="M949.99170721 578.13024765h-372.27999123v372.33946088c0 36.28433925-29.42737673 65.68254219-65.71283805 65.68254218-36.28433925 0-65.71171598-29.39820294-65.71171598-65.68254218V578.13024765H74.00492658c-36.31463511 0-65.71283805-29.39820294-65.71283804-65.68366427 0-36.27087442 29.40156915-65.68254219 65.71283804-65.68254218h372.27999124V74.42458033c0-36.27087442 29.42737673-65.68254219 65.71171597-65.6825422 36.28546132 0 65.71283805 29.41278983 65.71283806 65.6825422v372.34058293h372.27999122c36.31463511 0 65.71396011 29.41054569 65.71396012 65.68029806-0.00112207 36.28433925-29.39820294 65.68142012-65.71396012 65.68142013z" p-id="3168"></path></svg>