<?xml version="1.0" standalone="no"?><!DOCTYPE svg PUBLIC "-//W3C//DTD SVG 1.1//EN" "http://www.w3.org/Graphics/SVG/1.1/DTD/svg11.dtd"><svg t="1710903331485" class="icon" viewBox="0 0 1097 1024" version="1.1" xmlns="http://www.w3.org/2000/svg" p-id="7271" xmlns:xlink="http://www.w3.org/1999/xlink" width="214.2578125" height="200"><path d="M1003.88428 567.587761V162.669482A140.068371 140.068371 0 0 0 863.815909 22.527968H163.400909A140.068371 140.068371 0 0 0 23.405681 162.596339V863.084481c0 77.385032 62.683339 140.068371 140.068371 140.068372h611.253984M721.553255 94.86615v275.601892H306.029277V94.86615h415.523978zM658.284774 933.082096H163.547195a69.778186 69.778186 0 0 1-49.663929-20.479971 69.485615 69.485615 0 0 1-20.553114-49.444501V162.669482c0-38.765659 31.451384-70.217043 70.217043-70.217043h70.1439v280.356171c-0.073143 38.619373 31.158813 69.924472 69.778186 69.997615h420.424542a69.997614 69.997614 0 0 0 70.070757-69.997615V92.525582h69.924472c38.765659 0 70.070757 31.451384 69.997614 70.1439v405.430278" fill="#000000" p-id="7272"></path><path d="M583.825452 303.908137a36.205663 36.205663 0 0 0 36.132519-36.13252v-70.070757a36.205663 36.205663 0 0 0-72.411325 0v70.070757c0 19.967971 16.237691 36.13252 36.278806 36.13252z" fill="#000000" p-id="7273"></path><path d="M841.141656 1023.998537h-0.658285A256.292205 256.292205 0 0 1 585.142021 767.340618 254.317351 254.317351 0 0 1 660.552199 586.604876 254.390494 254.390494 0 0 1 841.141656 511.999269h0.658284a254.317351 254.317351 0 0 1 180.808885 75.410178A254.390494 254.390494 0 0 1 1097.14129 768.73033a254.244208 254.244208 0 0 1-75.410178 180.808885A254.317351 254.317351 0 0 1 841.141656 1023.998537z" fill="#000000" p-id="7274"></path><path d="M841.141656 575.999177c-51.126784 0-99.181573 19.821686-135.460378 55.881063a190.756299 190.756299 0 0 0-56.539348 135.606664 192.219154 192.219154 0 0 0 191.487726 192.511725h0.512c51.126784 0 99.181573-19.821686 135.387235-55.881063a190.683156 190.683156 0 0 0 56.61249-135.606664 190.756299 190.756299 0 0 0-55.881063-135.899234 190.756299 190.756299 0 0 0-135.606663-56.612491H841.141656z" fill="#FFFFFF" p-id="7275"></path><path d="M814.810265 857.159918a16.091406 16.091406 0 0 1-11.995412-26.84339l131.656955-146.285505a16.091406 16.091406 0 0 1 23.844537 21.503969l-131.656955 146.285505a16.091406 16.091406 0 0 1-11.922268 5.339421z" fill="#000000" p-id="7276"></path><path d="M813.493695 857.379347a16.091406 16.091406 0 0 1-11.70284-5.119993L724.113251 769.973757a16.091406 16.091406 0 0 1 23.405681-22.015968l77.531318 82.358739a16.091406 16.091406 0 0 1-11.70284 27.062819z" fill="#000000" p-id="7277"></path></svg>