<?xml version="1.0" standalone="no"?><!DOCTYPE svg PUBLIC "-//W3C//DTD SVG 1.1//EN" "http://www.w3.org/Graphics/SVG/1.1/DTD/svg11.dtd"><svg t="1711070881178" class="icon" viewBox="0 0 1024 1024" version="1.1" xmlns="http://www.w3.org/2000/svg" p-id="7932" xmlns:xlink="http://www.w3.org/1999/xlink" width="200" height="200"><path d="M873.054341 1024H31.980012c-17.908807 0-31.980012-14.071205-31.980012-31.980012V85.066833c0-17.908807 14.071205-31.980012 31.980012-31.980012h617.853842c17.908807 0 31.980012 14.071205 31.980012 31.980012s-14.071205 31.980012-31.980012 31.980013H63.960025V960.039975h777.114304V466.268582c0-17.908807 14.071205-31.980012 31.980012-31.980012s31.980012 14.071205 31.980013 31.980012V992.019988c0 17.908807-14.071205 31.980012-31.980013 31.980012z" p-id="7933"></path><path d="M439.405372 432.369769h-236.652093c-17.908807 0-31.980012-14.071205-31.980012-31.980013s14.071205-31.980012 31.980012-31.980012h236.652093c17.908807 0 31.980012 14.071205 31.980012 31.980012s-14.071205 31.980012-31.980012 31.980013zM610.178638 445.801374c-8.314803 0-16.629606-3.198001-22.386008-9.594004-12.792005-12.792005-12.792005-32.619613 0-45.411617l381.201749-381.201749c12.792005-12.792005 32.619613-12.792005 45.411617 0s12.792005 32.619613 0 45.411617L632.564647 436.20737c-5.756402 6.396002-14.071205 9.594004-22.386009 9.594004zM649.833854 656.229856H202.753279c-17.908807 0-31.980012-14.071205-31.980012-31.980012s14.071205-31.980012 31.980012-31.980013h447.080575c17.908807 0 31.980012 14.071205 31.980012 31.980013s-14.710806 31.980012-31.980012 31.980012z" p-id="7934"></path></svg>