<?xml version="1.0" standalone="no"?><!DOCTYPE svg PUBLIC "-//W3C//DTD SVG 1.1//EN" "http://www.w3.org/Graphics/SVG/1.1/DTD/svg11.dtd"><svg t="1710379453312" class="icon" viewBox="0 0 1024 1024" version="1.1" xmlns="http://www.w3.org/2000/svg" p-id="16187" xmlns:xlink="http://www.w3.org/1999/xlink" width="200" height="200"><path d="M742.4 156.373333l129.92 130.261334a36.906667 36.906667 0 0 1 0 52.096L340.437333 873.514667a51.2 51.2 0 0 1-36.266666 15.104H178.090667a36.864 36.864 0 0 1-36.864-36.864v-126.122667a51.2 51.2 0 0 1 15.018666-36.266667L690.389333 156.373333a36.693333 36.693333 0 0 1 51.968 0z m-26.112 64.512L205.226667 730.88v93.738667h93.568L807.893333 312.661333l-91.605333-91.733333z" fill="#000000" p-id="16188"></path><path d="M482.986667 823.466667h365.226666a30.72 30.72 0 0 1 30.72 30.72v2.56a30.72 30.72 0 0 1-30.72 30.72h-365.226666a30.72 30.72 0 0 1-30.72-30.72v-2.56a30.72 30.72 0 0 1 30.72-30.72z" fill="#000000" p-id="16189"></path></svg>