<?xml version="1.0" standalone="no"?><!DOCTYPE svg PUBLIC "-//W3C//DTD SVG 1.1//EN" "http://www.w3.org/Graphics/SVG/1.1/DTD/svg11.dtd"><svg t="1698829420532" class="icon" viewBox="0 0 1024 1024" version="1.1" xmlns="http://www.w3.org/2000/svg" p-id="18640" xmlns:xlink="http://www.w3.org/1999/xlink" width="200" height="200"><path d="M754.526 490.442c0 10.78 5.39 21.558 16.169 32.337 10.779 5.39 21.558 5.39 32.337 0 10.779-5.39 16.168-16.168 16.168-32.337V371.874c0-10.78-5.39-16.169-10.779-21.558l-312.59-317.98c-5.389-5.389-10.778-10.778-21.557-10.778H134.737c-32.337 0-59.284 26.947-59.284 59.284v781.474c0 32.337 26.947 59.284 59.284 59.284h285.642c16.168 0 26.947-16.168 26.947-32.337s-10.779-26.947-26.947-26.947H150.905c-5.39 0-5.39 0-5.39-5.39l-5.389-5.39V102.4c0-5.39 5.39-10.779 10.78-10.779h301.81v285.642c0 10.78 5.39 16.169 10.779 21.558 5.39 5.39 16.168 10.779 21.558 10.779h269.473v80.842z m-43.115-150.905H522.779V150.905L711.41 339.537z" fill="#7A80FA" p-id="18641"></path><path d="M937.768 943.158L776.084 781.474l161.684-161.685c10.78-10.778 10.78-32.336 0-43.115-10.779-10.78-32.336-10.78-43.115 0L732.968 738.358 571.284 576.674c-10.779-10.78-32.337-10.78-48.505 0-10.779 10.779-10.779 32.337 0 48.505l161.684 161.684L522.78 948.547C512 959.327 512 970.105 512 980.884s10.779 21.558 21.558 21.558 21.558 0 32.337-10.779L727.579 829.98l161.684 161.684c10.78 10.78 32.337 10.78 43.116 0 16.168-16.168 21.558-32.337 5.39-48.505z" fill="#7A80FA" p-id="18642"></path></svg>