<?xml version="1.0" standalone="no"?><!DOCTYPE svg PUBLIC "-//W3C//DTD SVG 1.1//EN" "http://www.w3.org/Graphics/SVG/1.1/DTD/svg11.dtd"><svg t="1701934106866" class="icon" viewBox="0 0 1024 1024" version="1.1" xmlns="http://www.w3.org/2000/svg" p-id="3439" xmlns:xlink="http://www.w3.org/1999/xlink" width="200" height="200"><path d="M982.6130739 369.84493603c-3.39442712-5.69778839-8.36483825-10.42574044-14.66877437-13.57770847l-84.8606779-42.67279804-78.31428279-39.39960047 106.92445421-213.48521976c7.15254287-14.3050857-4.48549295-34.79287795-26.30681014-45.70353654-21.70008763-10.91065857-45.21861838-8.00114965-52.24993172 6.18270653l-106.9244542 213.36399022-70.67682174-35.52025517-110.07642226-55.28067019c-0.48491817-0.12122955-0.96983633-0.48491817-1.57598401-0.60614772-0.6061477-0.12122955-1.2122954-0.6061477-1.69721355-0.72737725-0.6061477-0.12122955-0.96983633-0.48491817-1.57598401-0.60614772-0.72737724-0.12122955-1.2122954-0.48491817-1.69721357-0.72737723l-1.57598401-0.24245905c-0.6061477-0.12122955-1.2122954-0.24245908-1.93967265-0.24245907-0.6061477-0.12122955-1.2122954-0.12122955-1.69721356-0.12122954-0.6061477-0.12122955-1.2122954-0.12122955-1.93967262-0.2424591h-3.51565666c-0.6061477 0-1.2122954 0-1.69721356 0.12122955-0.6061477 0-1.2122954 0-1.69721357 0.12122955l-1.575984 0.24245908c-0.6061477 0.12122955-1.2122954 0.12122955-1.69721354 0.24245906-0.6061477 0.12122955-0.96983633 0.24245908-1.57598403 0.48491817-0.6061477 0.12122955-0.96983633 0.24245908-1.69721357 0.48491814-0.6061477 0.24245908-1.2122954 0.24245908-1.57598402 0.60614771-0.6061477 0.12122955-1.2122954 0.24245908-1.57598401 0.72737726-0.48491817 0.12122955-0.96983633 0.6061477-1.57598403 0.72737723-0.6061477 0.24245908-1.2122954 0.6061477-1.57598402 0.72737724-0.6061477 0.24245908-0.96983633 0.6061477-1.45475447 0.84860678-0.6061477 0.24245908-0.96983633 0.6061477-1.57598402 0.96983631-0.48491817 0.24245908-0.84860678 0.72737724-1.33352493 1.21229538-0.48491817 0.24245908-0.96983633 0.72737724-1.4547545 1.21229541-0.48491817 0.24245908-0.84860678 0.72737724-1.33352495 1.21229541-0.48491817 0.24245908-0.84860678 0.72737724-1.33352492 1.21229541-0.48491817 0.48491817-0.84860678 0.84860678-1.21229541 1.33352494-0.48491817 0.48491817-0.84860678 0.84860678-1.21229537 1.33352493-0.48491817 0.48491817-0.72737724 0.96983633-0.96983633 1.57598402-0.24245908 0.48491817-0.72737724 0.96983633-0.96983632 1.45475448l-0.96983633 1.57598403c-0.24245908 0.48491817-0.6061477 0.84860678-0.72737724 1.45475445-26.18558061 50.91640675-59.28124503 99.04453409-98.68084548 143.6570048-0.6061477 0.6061477-1.2122954 1.2122954-1.575984 2.06090217-25.21574428 28.36771234-52.97730894 55.28067021-83.2846939 80.98133265-78.92043047 66.5550174-171.17611033 120.13847404-274.22121928 159.1743859-15.15369249 5.81901792-24.12467842 20.73025134-23.15484212 36.24763243-0.84860678 12.85033122 5.33409975 25.82189199 17.09336513 33.21689391L652.38380721 993.5709188c4.48549295 2.78827942 9.45590412 4.36426342 14.18385616 4.97041113 6.18270653 4.36426342 13.45647893 6.54639515 20.60902179 6.54639515 9.09221549 0 18.30566054-3.51565666 25.21574428-10.30451087 87.04280965-85.46682562 155.41627014-181.35939168 203.18070887-285.01064829 48.37058642-104.74232247 72.980183-212.0304653 73.4651012-318.59123087-0.12122955-8.48606779-2.42459079-15.63861065-6.42516561-21.33639902zM850.23041632 678.85903323c-40.9755845 88.7400232-98.19592731 171.29733987-170.69119219 246.21719553l-136.74692099-83.52715299 85.83051425-84.01207114c14.18385618-13.94139708 14.42631524-36.61132104 0.60614769-50.79517723-13.94139708-14.18385618-36.61132104-14.42631524-50.91640675-0.60614768l-98.92330457 96.74117282-160.75036988-98.31715685 96.98363189-68.00977188c16.24475835-11.39557676 20.12410363-33.7018121 8.84975642-50.06779996-11.39557676-16.24475835-33.7018121-20.12410363-50.06779996-8.84975642l-122.80552393 86.07297331-125.23011472-76.61706922c86.19420288-38.79345277 164.62971517-87.89141644 233.60932339-145.96036603 25.45820338-21.5788581 49.34042273-44.00632299 71.64665806-67.64608327l440.91183662 251.79375439c-6.54639515 17.94197189-14.06262664 35.76271427-22.30623533 53.58345662z m44.85492977-123.89658977L479.99540147 317.95869296c23.88221937-30.06492587 45.33984792-61.58460626 64.00919706-94.31658205l372.41714657 187.29963915c-1.57598402 47.88566827-8.84975643 96.0137956-21.33639901 144.0206934z m0 0" p-id="3440"></path></svg>