<?xml version="1.0" standalone="no"?><!DOCTYPE svg PUBLIC "-//W3C//DTD SVG 1.1//EN" "http://www.w3.org/Graphics/SVG/1.1/DTD/svg11.dtd"><svg t="1701916380598" class="icon" viewBox="0 0 1024 1024" version="1.1" xmlns="http://www.w3.org/2000/svg" p-id="3301" xmlns:xlink="http://www.w3.org/1999/xlink" width="200" height="200"><path d="M603.66297552 512.69042042L994.71433491 903.73901813c25.88386123 25.88386123 25.88386123 67.85037552 0 93.73561759-25.88524206 25.88386123-67.85175637 25.88386123-93.73561758 0L509.92873876 606.42465716 118.88014105 997.47601657c-25.88386123 25.88386123-67.85037552 25.88386123-93.73561759 0-25.88386123-25.88524206-25.88386123-67.85175637 0-93.7356176L416.19450201 512.69042042 25.1431426 121.64182269c-25.88386123-25.88386123-25.88386123-67.85037552 0-93.73561758 25.88524206-25.88386123 67.85175637-25.88386123 93.7356176 0L509.92873876 418.95618367 900.97733649 27.90482427c25.88386123-25.88386123 67.85037552-25.88386123 93.73561759 0 25.88386123 25.88524206 25.88386123 67.85175637 0 93.73561758L603.66297552 512.69042042z" p-id="3302"></path></svg>