<?xml version="1.0" standalone="no"?><!DOCTYPE svg PUBLIC "-//W3C//DTD SVG 1.1//EN" "http://www.w3.org/Graphics/SVG/1.1/DTD/svg11.dtd"><svg t="1704882504029" class="icon" viewBox="0 0 1024 1024" version="1.1" xmlns="http://www.w3.org/2000/svg" p-id="3294" xmlns:xlink="http://www.w3.org/1999/xlink" width="200" height="200"><path d="M107.58323789 835.32056076h323.63402v80.79032582H26.67536485V107.26345891h404.54189304V186.91243921H106.32434516zM594.29821641 835.55691915h79.64392448v79.64898029h-79.64392448zM917.06516772 835.73387191h79.64771635v79.64898031h-79.64771635zM917.06516772 674.15448427h79.64771635v79.64771633h-79.64771635zM756.04697317 835.73387191h79.64771635v79.64898031h-79.64771635zM917.06516772 431.37145961h79.64771635v160.94994131h-79.64771635zM917.06516772 269.60374359h79.64771635v79.64771637h-79.64771635zM756.04697317 109.13410273h79.64771635v79.64898029h-79.64771635zM917.06643168 109.13410273h79.64392448v79.64898029h-79.64392448zM594.29695244 109.13410273h79.64771639v79.64898029h-79.64771639zM471.33245619 26.63112666h79.6489803v970.26882177h-79.6489803z" p-id="3295"></path></svg>