<?xml version="1.0" standalone="no"?><!DOCTYPE svg PUBLIC "-//W3C//DTD SVG 1.1//EN" "http://www.w3.org/Graphics/SVG/1.1/DTD/svg11.dtd"><svg t="1709027816313" class="icon" viewBox="0 0 1024 1024" version="1.1" xmlns="http://www.w3.org/2000/svg" p-id="3694" xmlns:xlink="http://www.w3.org/1999/xlink" width="200" height="200"><path d="M128.42072988 935.72369582h564.96492812V300.1381515H128.42072988v635.58554432zM57.80011368 299.85566971c0-38.84133896 32.20300051-70.33813316 70.26751243-70.33813443h565.67113444c38.84133896 0 70.26751242 31.4261747 70.26751367 70.33813443v636.15050913c0 38.84133896-32.20300051 70.33813316-70.26751367 70.33813315h-565.67113444A70.26751242 70.26751242 0 0 1 57.80011368 936.00617884V299.85566971zM199.04134478 441.37938384v70.62061616h423.72369705V441.37938384H199.04134478z m0 141.24123232v70.62061617h423.72369705v-70.62061617H199.04134478z m0 141.24123234v70.62061622h282.48246472v-70.62061622H199.04134478z m641.65891804 70.62061622v-70.62061622h64.40600222C905.24750532 723.8618485 905.31812608 512 905.24750532 88.41754446L339.92947462 88.27630418c0.49434403 0 0.56496481 27.25955765 0.35310255 81.77867296H269.661961V88.4881652C269.661961 49.43496523 301.8649627 17.65568801 339.92947462 17.65568801h565.67113445c38.84133896 0 70.26751242 32.20300051 70.26751242 70.76185645v635.30306258A70.62061616 70.62061616 0 0 1 905.10626504 794.48246472h-64.40600222z" p-id="3695"></path></svg>