<?xml version="1.0" standalone="no"?><!DOCTYPE svg PUBLIC "-//W3C//DTD SVG 1.1//EN" "http://www.w3.org/Graphics/SVG/1.1/DTD/svg11.dtd"><svg t="1698829465385" class="icon" viewBox="0 0 1024 1024" version="1.1" xmlns="http://www.w3.org/2000/svg" p-id="18788" xmlns:xlink="http://www.w3.org/1999/xlink" width="200" height="200"><path d="M513 974.1c-62.6 0-123.4-12.3-180.6-36.5-55.3-23.4-104.9-56.8-147.5-99.4-42.6-42.6-76-92.2-99.4-147.5C61.3 633.5 49 572.7 49 510.1s12.3-123.4 36.5-180.6c23.4-55.3 56.8-104.9 99.4-147.5s92.2-76 147.5-99.4c57.2-24.2 118-36.5 180.6-36.5s123.4 12.3 180.6 36.5c55.3 23.4 104.9 56.8 147.5 99.4 42.6 42.6 76 92.2 99.4 147.5 24.2 57.2 36.5 118 36.5 180.6s-12.3 123.4-36.5 180.6c-23.4 55.3-56.8 104.9-99.4 147.5-42.6 42.6-92.2 76-147.5 99.4-57.2 24.2-118 36.5-180.6 36.5z m0-864c-220.9 0-400 179.1-400 400s179.1 400 400 400 400-179.1 400-400-179.1-400-400-400z" p-id="18789"></path><path d="M717.2 542.1H308.8c-17.7 0-32-14.3-32-32s14.3-32 32-32h408.4c17.7 0 32 14.3 32 32s-14.3 32-32 32z" p-id="18790"></path><path d="M481 714.3V305.9c0-17.7 14.3-32 32-32s32 14.3 32 32v408.4c0 17.7-14.3 32-32 32s-32-14.3-32-32z" p-id="18791"></path></svg>