<?xml version="1.0" standalone="no"?><!DOCTYPE svg PUBLIC "-//W3C//DTD SVG 1.1//EN" "http://www.w3.org/Graphics/SVG/1.1/DTD/svg11.dtd"><svg t="1699328813139" class="icon" viewBox="0 0 1024 1024" version="1.1" xmlns="http://www.w3.org/2000/svg" p-id="2686" xmlns:xlink="http://www.w3.org/1999/xlink" width="200" height="200"><path d="M511.5 958.9c-247 0-447.2-200.2-447.2-447.2S264.5 64.5 511.5 64.5c246.9 0 447.2 200.2 447.2 447.2S758.5 958.9 511.5 958.9z m0-819.8c-205.8 0-372.6 166.8-372.6 372.6s166.8 372.6 372.6 372.6 372.6-166.8 372.6-372.6c0.1-205.8-166.8-372.6-372.6-372.6zM739.8 549H283.3c-8.6 0-16.9-3.4-23.1-9.6-6.1-6.1-9.5-14.4-9.5-23.1V507c0-18 14.6-32.6 32.6-32.6h456.5c18 0 32.6 14.6 32.6 32.6v9.3c0 8.6-3.4 16.9-9.6 23.1-6.1 6.2-14.4 9.6-23 9.6z m0 0" p-id="2687"></path></svg>