<?xml version="1.0" standalone="no"?><!DOCTYPE svg PUBLIC "-//W3C//DTD SVG 1.1//EN" "http://www.w3.org/Graphics/SVG/1.1/DTD/svg11.dtd"><svg t="1710484511547" class="icon" viewBox="0 0 1024 1024" version="1.1" xmlns="http://www.w3.org/2000/svg" p-id="38175" xmlns:xlink="http://www.w3.org/1999/xlink" width="200" height="200"><path d="M479.8 719.7c0-24.3 3.6-47.8 10.4-69.9 2.1-6.9 1.8-14.4-0.8-21.1-4.8-12.4-3.9-22.2-4.3-23.9 0.2-9.9 0.5-55.9 0.5-55.9s56.4-40.9 74-96.4c27.9-19.3 40.2-22 44.9-44.3 0 0 9.3-84.3-20.5-84.3 0 0-12.4 2.2-8.4-17.6 3.9-19.8 0.3-79.4-1.8-101.3-2-21.9 3.8-84.6-37.8-93.4-28.5-5.9-31.9 3.1-45.7 0.8-13.9-2.1-30.5-48.7-56.3-48.7L380.2 76c-25.8 0-21.8 8.7-35.8 11-13.8 2.2 2.9-2.2-38.8 6.6-41.8 8.8-56.5 68-58.5 90-2 21.8-2 85.7-0.7 118.6C250.3 322 234 322 234 322c-25-1.8-13.8 84.3-13.8 84.3 3.6 21.1-1.3 31.7 35.7 48.1 17.7 55.5 76.3 63.2 77.6 83.5 1.2 20.4 2.2 40.6 2.9 61-3.8-2 8.3 64.8-106.7 83.5-114.9 18.7-123.7 59.8-145.4 82.7-21.7 23-20.1 130.8-20.1 130.8h455.3c13.7 0 21.1-15.8 12.6-26.5-32.7-41.1-52.3-93.1-52.3-149.7z m-36.2-19.2c-4.2 8.8-8.9 17.4-13.5 26-0.4 0.6-0.7 1.3-1.1 1.7-6 4.2-4.1 9.6-2.9 15.3 5.7 27.1 10.9 54.4 16.4 81.5 1.7 8.5-2.5 14.8-6.9 20.8-5.2 7.3-12 13.5-19.7 18.1-3.9 2.3-8 2.7-11.6-0.3-4.8-4.1-9.2-8.7-13.7-13.1l-0.3-0.3c-13.6-19.9-13.3-16-8.5-44.9 3.9-23.4 9.4-46.6 13.8-70 0.4-1.8-0.4-4.1-1.2-5.8-5.6-11.3-11.5-22.4-16.8-33.8-1-2-0.5-5.6 0.7-7.6 3.9-6.3 8.2-12.3 12.5-18.1 0.7-0.9 2.6-1.3 3.8-1.3 5.1-0.2 10.4-0.1 15.5-0.1 2.3 0 4.6-0.1 7 0.1 4.1 0.3 9.4-1 12 1.2 7.2 5.4 12.5 12.9 15.2 21.5 0.7 3 0.5 6.2-0.7 9.1z m452.3 18.6c0-56.1-26.2-106-67.1-138.3-21-16.5-51.8-1.6-51.8 25.1 0 9.7 4.3 19 12 25 26.1 20.5 42.9 52.4 42.9 88.2 0 39.7-23.4 81.3-58.2 99L742 786.4c-6.9-6.9-18.8-2-18.8 7.8v94.5c0 6.1 4.9 11 11 11h94.5c9.8 0 14.7-11.8 7.8-18.8l-16.8-16.8c46-31.8 76.2-84.9 76.2-145z" p-id="38176"></path><path d="M700.3 530h-97.6c-9 0-13.5 10.8-7.1 17.2l26 26c-46.8 31.6-77.6 85.2-77.6 145.9 0 55.1 25.3 104.3 65 136.5 20.8 16.9 52 1.9 52-25 0-9.5-4.2-18.6-11.6-24.6-25.3-20.5-41.4-51.9-41.4-87 0-40.2 18.1-77.8 59.7-99.7l25.5 25.5c6.3 6.3 17.2 1.8 17.2-7.1v-97.6c-0.1-5.6-4.6-10.1-10.1-10.1z" p-id="38177"></path></svg>