<?xml version="1.0" standalone="no"?><!DOCTYPE svg PUBLIC "-//W3C//DTD SVG 1.1//EN" "http://www.w3.org/Graphics/SVG/1.1/DTD/svg11.dtd"><svg t="1710125308446" class="icon" viewBox="0 0 1024 1024" version="1.1" xmlns="http://www.w3.org/2000/svg" p-id="2601" xmlns:xlink="http://www.w3.org/1999/xlink" width="200" height="200"><path d="M879.16184331 101.64221884v820.71659901H144.83712V101.64221884h734.32472331m0-86.3918757H144.83712c-47.70970446 0-86.390839 38.68217124-86.390839 86.39083901v820.71659901c0 47.70866777 38.68217124 86.390839 86.390839 86.390839h734.32472331c47.70970446 0 86.39187571-38.68217124 86.39187569-86.390839V101.64221884c0-47.70970446-38.68217124-86.39187571-86.39187569-86.3918757z" p-id="2602"></path><path d="M752.27565487 316.45977389h-259.17355371c-23.85537058 0-43.19593785-19.34056727-43.19593785-43.19593786s19.34056727-43.19593785 43.19593785-43.19593785h259.17355371c23.85433389 0 43.19593785 19.34056727 43.19593786 43.19593785s-19.34264066 43.19593785-43.19593786 43.19593786zM336.51773355 316.45977389h-64.79338842c-23.85433389 0-43.19490116-19.34056727-43.19490116-43.19593786s19.34056727-43.19593785 43.19490116-43.19593785h64.79338842c23.85537058 0 43.19593785 19.34056727 43.19593785 43.19593785s-19.34160397 43.19593785-43.19593785 43.19593786zM752.27565487 535.93934281h-259.17355371c-23.85537058 0-43.19593785-19.34056727-43.19593785-43.19593785 0-23.85433389 19.34056727-43.19490116 43.19593785-43.19490116h259.17355371c23.85433389 0 43.19593785 19.34056727 43.19593786 43.19490116 0 23.85537058-19.34264066 43.19593785-43.19593786 43.19593785zM336.51773355 535.93934281h-64.79338842c-23.85433389 0-43.19490116-19.34056727-43.19490116-43.19593785 0-23.85433389 19.34056727-43.19490116 43.19490116-43.19490116h64.79338842c23.85537058 0 43.19593785 19.34056727 43.19593785 43.19490116 0 23.85537058-19.34160397 43.19593785-43.19593785 43.19593785zM752.27565487 755.41891173h-259.17355371c-23.85537058 0-43.19593785-19.34160397-43.19593785-43.19593784 0-23.85537058 19.34056727-43.19593785 43.19593785-43.19593786h259.17355371c23.85433389 0 43.19593785 19.34056727 43.19593786 43.19593786 0 23.85433389-19.34264066 43.19593785-43.19593786 43.19593784zM336.51773355 755.41891173h-64.79338842c-23.85433389 0-43.19490116-19.34160397-43.19490116-43.19593784 0-23.85537058 19.34056727-43.19593785 43.19490116-43.19593786h64.79338842c23.85537058 0 43.19593785 19.34056727 43.19593785 43.19593786 0 23.85433389-19.34160397 43.19593785-43.19593785 43.19593784z" p-id="2603"></path></svg>