<?xml version="1.0" standalone="no"?><!DOCTYPE svg PUBLIC "-//W3C//DTD SVG 1.1//EN" "http://www.w3.org/Graphics/SVG/1.1/DTD/svg11.dtd"><svg t="1710381090557" class="icon" viewBox="0 0 1024 1024" version="1.1" xmlns="http://www.w3.org/2000/svg" p-id="78509" xmlns:xlink="http://www.w3.org/1999/xlink" width="200" height="200"><path d="M264.5 182v603.75c0 14.4375-11.8125 26.25-26.25 26.25s-26.25-11.8125-26.25-26.25V242h-30c-33.1875 0-60 26.8125-60 60v540c0 33.1875 26.8125 60 60 60h662.0625c31.875 0 57.9375-25.875 57.9375-57.9375V182c0-33.1875-26.8125-60-60-60l-521.25 3.75c-33.1875 0-56.25 23.0625-56.25 56.25z m123.75 60h157.5c14.4375 0 26.25 11.8125 26.25 26.25s-11.8125 26.25-26.25 26.25H388.25c-14.4375 0-26.25-11.8125-26.25-26.25s11.8125-26.25 26.25-26.25z m0 300h277.5c14.4375 0 26.25 11.8125 26.25 26.25s-11.8125 26.25-26.25 26.25H388.25c-14.4375 0-26.25-11.8125-26.25-26.25s11.8125-26.25 26.25-26.25z m367.5 202.5H388.25c-14.4375 0-26.25-11.8125-26.25-26.25s11.8125-26.25 26.25-26.25h367.5c14.4375 0 26.25 11.8125 26.25 26.25s-11.8125 26.25-26.25 26.25z m0-300H388.25c-14.4375 0-26.25-11.8125-26.25-26.25s11.8125-26.25 26.25-26.25h367.5c14.4375 0 26.25 11.8125 26.25 26.25s-11.8125 26.25-26.25 26.25z" p-id="78510"></path></svg>