<?xml version="1.0" standalone="no"?><!DOCTYPE svg PUBLIC "-//W3C//DTD SVG 1.1//EN" "http://www.w3.org/Graphics/SVG/1.1/DTD/svg11.dtd"><svg t="1701944393398" class="icon" viewBox="0 0 1024 1024" version="1.1" xmlns="http://www.w3.org/2000/svg" p-id="3845" xmlns:xlink="http://www.w3.org/1999/xlink" width="200" height="200"><path d="M905.98921468 231.36522419q31.91532744 0 51.72484105 12.10581384t26.41268477 31.91532745 0 44.57140557-28.61374184 48.9735197q-89.14281114 99.04756793-171.6824511 193.69302174t-159.57663723 177.18509377q-20.91004212 22.01057065-48.9735197 34.1163845t-57.77774796 12.65607813-57.22748372-9.35449252-46.22219836-30.81479892q-42.92061276-47.3227269-89.14281115-96.84651087l-94.6454538-99.04756794q-46.22219838-49.52378397-91.89413248-97.39677513t-85.29096128-92.99466101q-18.70898505-20.91004212-24.21162771-43.47087704t1.10052852-41.26981998 25.31215627-30.81479891 48.42325544-12.10581386q38.51849864 0 106.20100339-0.55026426t148.02108765-0.55026426l165.07927988 0 161.77769431 0 135.36500951 0 85.84122554 0z" p-id="3846"></path></svg>