<?xml version="1.0" standalone="no"?><!DOCTYPE svg PUBLIC "-//W3C//DTD SVG 1.1//EN" "http://www.w3.org/Graphics/SVG/1.1/DTD/svg11.dtd"><svg t="1710903270580" class="icon" viewBox="0 0 1109 1024" version="1.1" xmlns="http://www.w3.org/2000/svg" p-id="5223" xmlns:xlink="http://www.w3.org/1999/xlink" width="216.6015625" height="200"><path d="M1063.125333 541.44c25.6 0 46.250667 20.736 46.250667 46.250667v184.917333a231.082667 231.082667 0 0 1-231.082667 231.082667H231.125333A231.082667 231.082667 0 0 1 0.042667 772.608V587.690667a46.250667 46.250667 0 1 1 92.416 0v184.917333c0 76.544 62.122667 138.666667 138.666666 138.666667h647.168c76.544 0 138.666667-62.122667 138.666667-138.666667V587.690667c0-25.6 20.650667-46.250667 46.165333-46.250667zM521.258667 290.133333C652.672 38.314667 835.797333-127.232 1109.376 126.890667v27.818666C924.970667 53.589333 802.005333 139.52 674.261333 387.413333l114.517334 73.386667c8.448 5.034667 13.226667 15.104 12.032 25.258667 0 2.56-1.194667 6.314667-2.389334 8.789333-3.584 5.12-8.448 10.154667-14.506666 11.434667L456.234667 646.656a25.088 25.088 0 0 1-29.013334-19.029333l-56.576-384.341334a26.965333 26.965333 0 0 1 8.448-26.624c7.253333-6.314667 16.896-6.314667 25.344-1.194666z" fill="#BBA488" p-id="5224"></path></svg>