<?xml version="1.0" standalone="no"?><!DOCTYPE svg PUBLIC "-//W3C//DTD SVG 1.1//EN" "http://www.w3.org/Graphics/SVG/1.1/DTD/svg11.dtd"><svg t="1698829056053" class="icon" viewBox="0 0 1024 1024" version="1.1" xmlns="http://www.w3.org/2000/svg" p-id="18493" xmlns:xlink="http://www.w3.org/1999/xlink" width="200" height="200"><path d="M961.442909 922.205091H62.557091a39.237818 39.237818 0 1 0 0 78.522182h898.885818a39.237818 39.237818 0 1 0 0-78.568728zM276.386909 793.460364l256.884364-108.776728a36.119273 36.119273 0 0 0 11.170909-7.447272l433.245091-433.291637a78.801455 78.801455 0 0 0 0.232727-111.243636L891.438545 46.173091a78.801455 78.801455 0 0 0-111.290181 0.232727l-433.338182 433.338182a34.909091 34.909091 0 0 0-7.400727 11.077818l-108.869819 256.837818a34.536727 34.536727 0 0 0 7.447273 38.260364 34.443636 34.443636 0 0 0 38.353455 7.540364zM835.630545 101.934545l0.232728-0.232727 86.388363 86.388364-0.232727 0.232727L854.434909 256l-86.388364-86.388364 67.630546-67.630545z m-427.287272 427.287273l304.128-304.128 86.388363 86.388364-304.128 304.174545-149.876363 63.488 63.441454-149.876363z" p-id="18494"></path></svg>