<?xml version="1.0" standalone="no"?><!DOCTYPE svg PUBLIC "-//W3C//DTD SVG 1.1//EN" "http://www.w3.org/Graphics/SVG/1.1/DTD/svg11.dtd"><svg t="1698914527372" class="icon" viewBox="0 0 1024 1024" version="1.1" xmlns="http://www.w3.org/2000/svg" p-id="2378" xmlns:xlink="http://www.w3.org/1999/xlink" width="200" height="200"><path d="M786.1 101.3L748.8 64l-37.3 37.3-173.9 173.9 52.8 52.8 121.1-121v66.4c0 206.2-167.7 373.9-373.9 373.9h0.6v74.6c91.3-0.1 176.2-27.6 247-74.6 50.1-33.2 93.1-76.2 126.3-126.3 47.1-71 74.7-156 74.7-247.6V207l121 121 52.8-52.8-173.9-173.9zM338.1 721.9h-0.6 0.6z" p-id="2379"></path><path d="M885.3 512v373.3H138.7V138.7H512V64H64v896h896V512z" p-id="2380"></path></svg>