<?xml version="1.0" standalone="no"?><!DOCTYPE svg PUBLIC "-//W3C//DTD SVG 1.1//EN" "http://www.w3.org/Graphics/SVG/1.1/DTD/svg11.dtd"><svg t="1709090501660" class="icon" viewBox="0 0 1024 1024" version="1.1" xmlns="http://www.w3.org/2000/svg" p-id="3831" xmlns:xlink="http://www.w3.org/1999/xlink" width="200" height="200"><path d="M512 1020.42722384c-135.34143521 0-262.5608312-52.90972659-358.2393836-148.96099274-95.64749256-96.02020632-148.32427465-223.68996352-148.32427464-359.4662311s52.67678101-263.44602478 148.32427464-359.4662311C249.4391688 56.4669739 376.67409472 3.57277616 512 3.57277616s262.5608312 52.90972659 358.2393836 148.96099274c95.64749256 96.02020632 148.32427465 223.68996352 148.32427464 359.4662311S965.88687723 775.44602478 870.2393836 871.4662311c-95.6785524 96.066795-222.8979484 148.96099274-358.2393836 148.96099274z m0-946.97074614c-240.78817676 0-436.67995671 196.73038484-436.67995671 438.5435223 0 241.81313746 195.89177995 438.5435223 436.67995671 438.5435223s436.67995671-196.73038484 436.67995671-438.5435223c0-241.81313746-195.89177995-438.5435223-436.67995671-438.5435223z" p-id="3832"></path><path d="M326.17147229 734.86688963c-8.8829945 0-17.75046016-3.36994733-24.56800335-10.09431316-13.72826483-13.57296777-13.8525031-35.68727723-0.27953425-49.41554205l371.65705433-375.83454671c13.57296777-13.72826483 35.68727723-13.8525031 49.41554204-0.27953425s13.8525031 35.68727723 0.27953425 49.41554096L351.01901098 724.49304222c-6.8330731 6.91072163-15.84030591 10.37384741-24.84753869 10.37384741z" p-id="3833"></path><path d="M695.76307532 736.96340078c-9.13146998 0-18.26294107-3.55630422-25.12707293-10.65338274L303.12538059 346.2669191c-13.41767074-13.86803195-13.04495805-35.9978713 0.82307499-49.41554205s35.9978713-13.04495805 49.41554203 0.82307498l367.52615171 380.05862887c13.41767074 13.86803195 13.04495805 35.9978713-0.82307497 49.40001213a34.8719672 34.8719672 0 0 1-24.30399903 9.83030775z" p-id="3834"></path></svg>