<?xml version="1.0" standalone="no"?><!DOCTYPE svg PUBLIC "-//W3C//DTD SVG 1.1//EN" "http://www.w3.org/Graphics/SVG/1.1/DTD/svg11.dtd"><svg t="1708409022098" class="icon" viewBox="0 0 1024 1024" version="1.1" xmlns="http://www.w3.org/2000/svg" p-id="2596" xmlns:xlink="http://www.w3.org/1999/xlink" width="200" height="200"><path d="M510.674207 868.081303a354.189404 354.189404 0 1 0-295.333675-554.494816l-26.601885 47.099655a354.189404 354.189404 0 0 0 319.071901 510.25882z m469.564719-396.842851a41.447696 41.447696 0 0 1 0 82.895392h-43.557761a397.06893 397.06893 0 0 1-30.143779 126.453153l49.586516 28.787309a40.166586 40.166586 0 0 1 20.347051 35.720378 41.447696 41.447696 0 0 1-20.347051 35.720378 40.241945 40.241945 0 0 1-41.296977 0l-47.551811-27.20476a445.901852 445.901852 0 0 1-91.109573 96.91225l30.520577 53.279129a41.296977 41.296977 0 0 1-70.687162 41.975212l-29.390185-50.41547a418.546372 418.546372 0 0 1-159.53595 46.496779v43.63312a40.769461 40.769461 0 0 1-40.769462 37.679724 41.372337 41.372337 0 0 1-41.296977-37.679724v-44.235996a424.499769 424.499769 0 0 1-154.411508-46.496779l-26.601885 48.757563a41.221618 41.221618 0 0 1-56.519586 15.071889 40.92018 40.92018 0 0 1-19.216659-24.943977 39.789788 39.789788 0 0 1 4.521567-31.198811l32.253843-56.670305a445.525054 445.525054 0 0 1-89.97918-96.987609l-47.551811 27.807636a40.99554 40.99554 0 0 1-41.296978-70.91324l48.079328-30.143779a423.821534 423.821534 0 0 1-29.390185-120.575116H40.506614a41.296977 41.296977 0 0 1-39.036194-41.372337 41.975212 41.975212 0 0 1 38.433318-41.447696h46.42142a427.966303 427.966303 0 0 1 35.645018-131.502236l-46.421419-26.677245a41.447696 41.447696 0 0 1 38.508677-73.249383 40.392664 40.392664 0 0 1 3.918692 2.411503l46.421419 26.074368a408.222128 408.222128 0 0 1 101.810614-102.639567l-27.732276-46.496779A40.844821 40.844821 0 0 1 252.115943 63.995997l1.055032-0.602876a41.824493 41.824493 0 0 1 56.594945 14.695092l27.129401 48.230047a416.360948 416.360948 0 0 1 129.392172-35.645019V44.779337a40.92018 40.92018 0 0 1 19.819534-38.584037 39.639069 39.639069 0 0 1 42.954886 0 40.92018 40.92018 0 0 1 19.819534 38.584037v46.49678a424.725847 424.725847 0 0 1 139.1889 36.247894l27.129401-46.496779a40.694102 40.694102 0 0 1 55.313835-15.976203l1.205751 0.678235a42.050572 42.050572 0 0 1 15.07189 56.745664l-29.390185 44.235996a435.351529 435.351529 0 0 1 102.941005 105.503226l51.470503-29.465544a40.543383 40.543383 0 0 1 42.427369 0 41.372337 41.372337 0 0 1 0 73.098665l-53.20377 31.198811a419.902842 419.902842 0 0 1 32.78136 127.583545zM432.074304 226.847763a20.42241 20.42241 0 1 0-19.819535-20.949927v0.527517a21.025286 21.025286 0 0 0 5.651958 14.167576 20.196332 20.196332 0 0 0 14.092217 6.254834zM331.394081 717.287048a29.465544 29.465544 0 0 0-30.143779 28.938028V746.752592a30.143779 30.143779 0 0 0 30.143779 30.143779 29.465544 29.465544 0 0 0 29.390185-29.465544v-0.602875a29.465544 29.465544 0 0 0-29.390185-29.465544z m324.045625-396.918211a24.341102 24.341102 0 0 0-15.071889-23.210709 25.546853 25.546853 0 0 0-27.129401 5.651958 24.416461 24.416461 0 0 0-5.651959 27.204761 24.943977 24.943977 0 0 0 23.21071 15.900843 27.054042 27.054042 0 0 0 18.086267-5.651958 24.56718 24.56718 0 0 0 6.631632-19.894895zM520.772373 642.455117a70.837881 70.837881 0 1 0 49.812595 20.42241 70.084286 70.084286 0 0 0-49.812595-20.42241z m169.709476-201.285085a42.578088 42.578088 0 1 0 42.427369 42.502728 43.557761 43.557761 0 0 0-44.688152-42.502728h2.185424z m-221.179978 9.043134a84.854738 84.854738 0 1 1-84.854738-85.005457 86.738724 86.738724 0 0 1 60.287558 24.943977 84.402581 84.402581 0 0 1 21.477442 60.287558h2.7883z" p-id="2597"></path></svg>