<?xml version="1.0" standalone="no"?><!DOCTYPE svg PUBLIC "-//W3C//DTD SVG 1.1//EN" "http://www.w3.org/Graphics/SVG/1.1/DTD/svg11.dtd"><svg t="1701941369253" class="icon" viewBox="0 0 1024 1024" version="1.1" xmlns="http://www.w3.org/2000/svg" p-id="3573" xmlns:xlink="http://www.w3.org/1999/xlink" width="200" height="200"><path d="M111.43571416 256.78571416a25.32857168 25.32857168 0 0 1 0.32142832-0.32142832L111.43571416 256.14285752v0.64285664z m47.57142832-7.26428584h404.61428584c84.21428584 0 166.37142832 8.1 238.56428584 57.21428584 105.04285752 71.35714248 171 196.45714248 156.6 324.96428584-14.59285752 129.40714248-95.27142832 243-217.41428584 291.98571416-68.33571416 27.51428584-138.02142832 25.52142832-209.8285708 25.52142832H97.80714248c-37.41428584 0-37.41428584-58.05 0-58.05h512.67857168c109.54285752 0 213.49285752-63.64285752 261.77142832-162.38571416 58.43571416-119.7 28.22142832-268.39285752-74.89285664-353.7-49.75714248-41.14285752-113.78571416-66.53571416-178.65-67.37142832-18.38571416-0.25714248-36.77142832-0.12857168-55.09285752-0.12857168H162.92857168l116.6785708 116.8714292c26.48571416 26.55-14.52857168 67.56428584-40.95 41.0785708L70.35714248 297.15714248a29.31428584 29.31428584 0 0 1 0-41.01428496c61.45714248-61.39285752 122.78571416-122.78571416 184.17857168-184.30714336 26.42142832-26.48571416 67.5 14.59285752 41.01428584 41.07857168L159.00714248 249.52142832z" fill="#666666" p-id="3574"></path></svg>