<?xml version="1.0" standalone="no"?><!DOCTYPE svg PUBLIC "-//W3C//DTD SVG 1.1//EN" "http://www.w3.org/Graphics/SVG/1.1/DTD/svg11.dtd"><svg t="1704880376933" class="icon" viewBox="0 0 1024 1024" version="1.1" xmlns="http://www.w3.org/2000/svg" p-id="3153" xmlns:xlink="http://www.w3.org/1999/xlink" width="200" height="200"><path d="M511.69197437 19.46701763c-165.43663805 0-311.56895838 81.31876633-401.04730293 205.91513366v-82.88370191c0-25.48240221-20.71834137-46.13665769-46.27413225-46.13665769s-46.27413224 20.65528913-46.27413223 46.13665769v184.54663084c0 25.47620035 20.71834137 46.13665769 46.27413223 46.13665768h200.52158418c25.55579086 0 46.27413224-20.65942371 46.27413225-46.13665768 0-25.48240221-20.71834137-46.13665769-46.27413225-46.13665771h-80.49185188c72.59895352-102.30275395 192.0322738-169.16705582 327.29273652-169.16705581 221.48489896 0 401.04110109 179.02077502 401.04110109 399.85137794 0 220.82646834-179.55620213 399.85137795-401.04110109 399.85137793-186.68213734 0-343.10954253-127.35722792-387.81357095-299.54665601l-0.80314065 0.25014162c-6.23493492-18.12493093-22.98305332-31.35349473-43.28173557-31.35349477-25.55579086 0-46.27413224 20.65528913-46.27413222 46.1314895 0 4.54699579 1.36854341 8.66606335 2.59444406 12.81097203l-0.48167767 0.15194552c0.30389105 1.11736814 0.86102466 2.11690095 1.17111757 3.22806724 0.34006857 0.89616853 0.56643639 1.79130341 0.9602544 2.66266453 58.71506001 206.36270109 248.13531783 357.93715211 473.93154197 357.93715211 272.60268255 0 493.59039919-220.33445424 493.59039918-492.12469333-0.00206729-271.79540731-220.99081759-492.12572698-493.59453376-492.12572698z m0 207.61134192c-25.55579086 0-46.27413224 20.65528913-46.27413223 46.13665768v276.81994621c0 25.48240221 20.71834137 46.13665769 46.27413223 46.13665769h200.52055055c25.55579086 0 46.27413224-20.65528913 46.27413222-46.13148948 0-25.48653678-20.71834137-46.13665769-46.27413222-46.1366577H557.96610659v-230.68845672c0-25.48240221-20.71937501-46.13665769-46.27516586-46.13665768z" p-id="3154"></path></svg>