<?xml version="1.0" standalone="no"?><!DOCTYPE svg PUBLIC "-//W3C//DTD SVG 1.1//EN" "http://www.w3.org/Graphics/SVG/1.1/DTD/svg11.dtd"><svg t="1710380858124" class="icon" viewBox="0 0 1024 1024" version="1.1" xmlns="http://www.w3.org/2000/svg" p-id="77283" xmlns:xlink="http://www.w3.org/1999/xlink" width="200" height="200"><path d="M585.01 960.66H108c-13.81 0-25-11.19-25-25V73.32c0-13.81 11.19-25 25-25h717.51c13.81 0 25 11.19 25 25v380.23c0 13.81-11.19 25-25 25s-25-11.19-25-25V98.32H133v812.34h452.01c13.81 0 25 11.19 25 25s-11.19 25-25 25z" fill="#231815" p-id="77284"></path><path d="M574.06 294.96H236.89c-13.81 0-25-11.19-25-25s11.19-25 25-25h337.16c13.81 0 25 11.19 25 25s-11.19 25-24.99 25zM598.81 454.29H236.89c-13.81 0-25-11.19-25-25s11.19-25 25-25h361.92c13.81 0 25 11.19 25 25s-11.2 25-25 25zM483.37 613.86H236.89c-13.81 0-25-11.19-25-25s11.19-25 25-25h246.48c13.81 0 25 11.19 25 25s-11.19 25-25 25z" fill="#231815" p-id="77285"></path><path d="M743.42 935.19c-58.65 0-113.79-22.84-155.26-64.31s-64.31-96.61-64.31-155.26 22.84-113.79 64.31-155.26 96.61-64.31 155.26-64.31 113.79 22.84 155.26 64.31S963 656.97 963 715.62s-22.84 113.79-64.31 155.26-96.62 64.31-155.27 64.31z m0-389.14c-93.5 0-169.57 76.07-169.57 169.57s76.07 169.57 169.57 169.57S913 809.12 913 715.62s-76.07-169.57-169.58-169.57z" fill="#1D1D1D" p-id="77286"></path><path d="M721.18 811.14c-6.4 0-12.8-2.44-17.68-7.32l-59.55-59.55c-9.76-9.76-9.76-25.59 0-35.36 9.76-9.76 25.59-9.76 35.36 0l41.87 41.87 100.15-100.15c9.76-9.76 25.59-9.76 35.36 0 9.76 9.76 9.76 25.59 0 35.36L738.86 803.82c-4.88 4.88-11.28 7.32-17.68 7.32z" fill="#1D1D1D" p-id="77287"></path></svg>