<?xml version="1.0" standalone="no"?><!DOCTYPE svg PUBLIC "-//W3C//DTD SVG 1.1//EN" "http://www.w3.org/Graphics/SVG/1.1/DTD/svg11.dtd"><svg t="1700120952936" class="icon" viewBox="0 0 1024 1024" version="1.1" xmlns="http://www.w3.org/2000/svg" p-id="2305" xmlns:xlink="http://www.w3.org/1999/xlink" width="200" height="200"><path d="M510.81599388 1004.16312667c-64.38388933 0-126.86045641-12.61699686-185.69418027-37.50191667-56.80931411-24.02810208-107.82115648-58.41899343-151.62062884-102.21737151s-78.19036369-94.81240898-102.21846577-151.62062882c-24.88491982-58.83481813-37.50191667-121.31029095-37.50191667-185.69418028 0-160.52803164 80.01561527-309.33090099 214.04029359-398.04819527l1.54183422-1.01658198c16.16792094-10.61009554 37.87834746-6.10277463 48.48734872 10.0662406 10.61009554 16.16901522 6.10277463 37.87725318-10.0662406 48.48734873l-1.28686803 0.84806353c-114.39775243 75.72496091-182.68273401 202.69703345-182.68273401 339.66203013 0 224.42168555 182.57987212 407.00155766 407.00155766 407.00155766 224.42059127 0 407.00155766-182.57987212 407.00155765-407.00155766 0-135.91558642-67.47302916-262.34599257-180.4919944-338.20226658-16.05739913-10.7775197-20.33711071-32.53171722-9.55959103-48.59021061s32.53390577-20.33711071 48.58911634-9.56068531c132.43250742 88.886907 211.49610299 237.0561908 211.496103 396.3531625 0 64.38388933-12.61699686 126.86045641-37.50191669 185.69418027-24.02810208 56.80821984-58.41899343 107.82115648-102.21737149 151.62062882s-94.81240898 78.18926941-151.6217231 102.2173715c-58.83262958 24.88491982-121.30919666 37.50301095-185.69418028 37.50301095z" p-id="2306"></path><path d="M510.81599388 587.82302164c-19.33913143 0-35.01681694-15.67768552-35.01681696-35.01681695V40.99493681c0-19.33913143 15.67768552-35.01681694 35.01681696-35.01681694s35.01681694 15.67768552 35.01681694 35.01681694v511.81126788c0 19.33913143-15.67659125 35.01681694-35.01681694 35.01681695z" p-id="2307"></path></svg>