<?xml version="1.0" standalone="no"?><!DOCTYPE svg PUBLIC "-//W3C//DTD SVG 1.1//EN" "http://www.w3.org/Graphics/SVG/1.1/DTD/svg11.dtd"><svg t="1700121075280" class="icon" viewBox="0 0 1024 1024" version="1.1" xmlns="http://www.w3.org/2000/svg" p-id="2444" xmlns:xlink="http://www.w3.org/1999/xlink" width="200" height="200"><path d="M918.25898062 58.56098811H104.16024515c-52.89513814 0-71.86442908 18.96929092-71.86442908 71.8644291v646.53666562c0 52.89513814 18.96929092 71.86442908 71.86442908 71.86442907h95.81923875s-14.34856621 111.26218714 0 119.77404848c1.58077425 0.85118612 3.52634255 1.21598018 6.07990093 1.21598018 43.89688476 0 235.77855833-120.99002865 257.30140768-120.99002866h454.89818811c52.89513814 0 71.86442908-18.8476929 71.86442906-71.86442907V130.30381918c0-52.77354012-18.96929092-71.74283106-71.86442906-71.74283107z m0 718.27949669H463.36079251c-26.14357404 0-47.54482534 11.06541971-125.48915534 53.38153024-18.23970282 9.97103755-43.53209071 23.71161365-67.85169446 36.23620959 0.36479407-2.91835245 0.72958812-5.71510689 1.09438217-8.5118613l10.45742961-81.10587853h-177.53310737V130.30381918H918.13738261v646.53666562z" p-id="2445"></path><path d="M295.67712468 537.41398592c39.64095412 0 71.86442908-32.22347498 71.86442905-71.8644291s-32.22347498-71.86442908-71.86442905-71.86442905-71.86442908 32.10187694-71.8644291 71.86442905c0 39.64095412 32.22347498 71.86442908 71.8644291 71.8644291zM511.14881388 537.41398592c39.64095412 0 71.86442908-32.22347498 71.86442906-71.8644291s-32.10187694-71.86442908-71.86442906-71.86442905-71.86442908 32.10187694-71.8644291 71.86442905c0.12159803 39.64095412 32.22347498 71.86442908 71.8644291 71.8644291zM726.7421011 537.41398592c39.64095412 0 71.86442908-32.22347498 71.86442908-71.8644291s-32.10187694-71.86442908-71.86442908-71.86442905c-39.64095412 0-71.86442908 32.10187694-71.86442908 71.86442905 0 39.64095412 32.22347498 71.86442908 71.86442908 71.8644291z" p-id="2446"></path></svg>