<?xml version="1.0" standalone="no"?><!DOCTYPE svg PUBLIC "-//W3C//DTD SVG 1.1//EN" "http://www.w3.org/Graphics/SVG/1.1/DTD/svg11.dtd"><svg t="1700962458848" class="icon" viewBox="0 0 1024 1024" version="1.1" xmlns="http://www.w3.org/2000/svg" p-id="2481" xmlns:xlink="http://www.w3.org/1999/xlink" width="200" height="200"><path d="M323.7632 812.672H270.592c-9.216 0-16.77824 7.0912-16.77824 15.60064v50.0992c0 8.98048 7.56736 16.07168 16.77824 16.07168h53.17632c9.216 0 16.77824-7.0912 16.77824-16.07168v-50.0992c0-8.51456-7.56736-15.60064-16.78336-15.60064z m0-378.59328H270.592c-9.216 0-16.77824 7.0912-16.77824 15.83104v50.33984c0 8.50944 7.56736 15.60064 16.77824 15.60064h53.17632c9.216 0 16.77824-7.0912 16.77824-15.60064v-50.33984c0-8.73984-7.56736-15.83104-16.78336-15.83104z m0 126.19264H270.592c-9.216 0-16.77824 7.0912-16.77824 15.84128v49.85856c0 8.75008 7.56736 16.07168 16.77824 16.07168h53.17632c9.216 0 16.77824-7.3216 16.77824-16.07168v-50.0992c0-8.50944-7.56736-15.60064-16.78336-15.60064z m0 126.19776H270.592c-9.216 0-16.77824 7.0912-16.77824 15.60064v50.0992c0 8.98048 7.56736 16.07168 16.77824 16.07168h53.17632c9.216 0 16.77824-7.0912 16.77824-16.07168v-50.0992c0-8.50944-7.56736-15.60064-16.78336-15.60064z m0-378.58816H270.592c-9.216 0-16.77824 7.0912-16.77824 15.83104v50.33984c0 8.50944 7.56736 15.60064 16.77824 15.60064h53.17632c9.216 0 16.77824-7.0912 16.77824-15.60064v-50.33984c0-8.73984-7.56736-15.83104-16.78336-15.83104z m635.96032 668.8H64.27648c-9.45152 0-17.01376-7.0912-17.01376-16.07168v-51.04128c0-8.98048 7.56736-16.07168 17.01376-16.07168h50.10432V253.99296c0-17.96096 11.3408-34.02752 28.83072-41.11872L439.56736 50.75456a51.7888 51.7888 0 0 1 44.90752 3.78368c13.2352 8.27392 21.02784 22.21568 21.02784 37.34016v801.62304h53.65248V163.71712c0-16.07168 8.98048-30.72 23.6288-38.28736a49.3568 49.3568 0 0 1 47.26272 0l256.1792 140.8512c14.65344 8.03328 23.15776 22.68672 23.15776 38.28736v589.39904h50.57536c9.22112 0 16.77824 7.0912 16.77824 15.60064v51.04128c-0.2304 8.98048-7.79776 16.07168-17.01376 16.07168z m-200.40192-411.4432h-53.17632c-9.216 0-16.77824 7.0912-16.77824 15.83104v49.85856c0 8.75008 7.56736 15.84128 16.77824 15.84128h53.17632c9.216 0 16.77824-7.0912 16.77824-15.84128v-50.0992c0-8.73984-7.56736-15.5904-16.77824-15.5904z m0-252.63104h-53.17632c-9.216 0-16.77824 7.0912-16.77824 16.07168v50.10432c0 8.4992 7.56736 15.5904 16.77824 15.5904h53.17632c9.216 0 16.77824-7.0912 16.77824-15.5904v-50.10432c0-8.9856-7.56736-16.07168-16.77824-16.07168z m0 378.59328h-53.17632c-9.216 0-16.77824 7.0912-16.77824 15.83104v50.0992c0 8.75008 7.56736 15.84128 16.77824 15.84128h53.17632c9.216 0 16.77824-7.0912 16.77824-15.84128v-50.0992c0-8.73984-7.56736-15.83104-16.77824-15.83104z m0 126.19776h-53.17632c-9.216 0-16.77824 7.0912-16.77824 15.83104v50.0992c0 8.75008 7.56736 15.84128 16.77824 15.84128h53.17632c9.216 0 16.77824-7.0912 16.77824-15.84128v-50.0992c0-8.73984-7.56736-15.83104-16.77824-15.83104z m0-378.5984h-53.17632c-9.216 0-16.77824 7.33184-16.77824 16.07168v50.10944c0 8.4992 7.56736 15.83104 16.77824 15.83104h53.17632c9.216 0 16.77824-7.33184 16.77824-15.83104v-50.10944c0-8.73984-7.56736-16.07168-16.77824-16.07168z m0 0" fill="" p-id="2482"></path></svg>