<?xml version="1.0" standalone="no"?><!DOCTYPE svg PUBLIC "-//W3C//DTD SVG 1.1//EN" "http://www.w3.org/Graphics/SVG/1.1/DTD/svg11.dtd"><svg t="1709027774565" class="icon" viewBox="0 0 1024 1024" version="1.1" xmlns="http://www.w3.org/2000/svg" p-id="3557" xmlns:xlink="http://www.w3.org/1999/xlink" width="200" height="200"><path d="M692.99563995 547.6435068l337.02527573 196.68278156-143.82746041 41.16616359 102.80650376 178.096295-83.85699988 48.42650989-102.80650375-178.16889846-107.59833234 104.04076264-1.74248311-390.24361422zM596.14262018 208.94835143h96.85301977v96.78041631H934.98298248c26.71807442 0 48.42650989 21.70843546 48.42650991 48.42650989v193.56083265h-96.85301979v-145.20692622H402.58178752v484.04728854h193.56083266v96.78041632H354.15527763A48.42650989 48.42650989 0 0 1 305.72876774 934.98298248v-242.059946H208.94835143V596.07001672h96.78041631V354.08267417c0-26.71807442 21.70843546-48.42650989 48.42650989-48.42650989h241.98734255V208.87574797zM112.1679351 596.07001672v96.78041631H15.31491531V596.07001672h96.85301979z m0-193.63343612V499.36220385H15.31491531V402.4365806h96.85301979z m0-193.56083263v96.78041631H15.31491531V208.87574797h96.85301979z m0-193.63343612v96.78041632H15.31491531V15.24231185h96.85301979z m193.56083264 0v96.78041632H208.94835143V15.24231185h96.78041631z m193.63343611 0v96.78041632H402.58178752V15.24231185H499.36220385z m193.6334361 0v96.78041632H596.14262018V15.24231185h96.85301977z" p-id="3558"></path></svg>