<?xml version="1.0" standalone="no"?><!DOCTYPE svg PUBLIC "-//W3C//DTD SVG 1.1//EN" "http://www.w3.org/Graphics/SVG/1.1/DTD/svg11.dtd"><svg t="1708583195790" class="icon" viewBox="0 0 1024 1024" version="1.1" xmlns="http://www.w3.org/2000/svg" p-id="2824" xmlns:xlink="http://www.w3.org/1999/xlink" width="200" height="200"><path d="M187.733333 85.333333h85.333334V0H170.666667C76.8 0 0 76.8 0 170.666667v102.4h85.333333V190.72C85.333333 132.693333 131.413333 85.333333 187.733333 85.333333zM853.333333 0h-102.4v85.333333h85.333334c56.32 0 102.4 47.36 102.4 105.386667V273.066667h85.333333V170.666667c0-93.866667-76.8-170.666667-170.666667-170.666667zM1024 853.333333v-102.4h-85.333333v82.346667c0 58.026667-46.08 105.386667-102.4 105.386667h-85.333334v85.333333h102.4c93.866667 0 170.666667-76.8 170.666667-170.666667zM0 853.333333c0 93.866667 76.8 170.666667 170.666667 170.666667h102.4v-85.333333H187.733333c-56.32 0-102.4-47.36-102.4-105.386667V750.933333H0v102.4z" p-id="2825"></path><path d="M518.4 401.493333c-55.466667 0-100.266667 46.08-100.266667 104.106667 0 57.173333 44.8 103.68 100.266667 103.68 55.893333 0 100.693333-46.506667 100.693333-103.68 0-57.6-45.226667-104.106667-100.693333-104.106667z" p-id="2826"></path><path d="M511.573333 251.733333C323.413333 251.733333 170.666667 401.066667 170.666667 508.16S323.413333 763.733333 511.573333 763.733333c189.013333 0 341.76-151.893333 341.76-255.573333 0-103.68-152.746667-256.426667-341.76-256.426667z m0 443.306667c-144.213333 0-262.4-104.96-262.4-187.306667 0-81.92 117.76-187.733333 262.4-187.733333 145.066667 0 263.68 106.666667 263.68 187.733333s-118.613333 187.306667-263.68 187.306667z" p-id="2827"></path></svg>