<?xml version="1.0" standalone="no"?><!DOCTYPE svg PUBLIC "-//W3C//DTD SVG 1.1//EN" "http://www.w3.org/Graphics/SVG/1.1/DTD/svg11.dtd"><svg t="1698829473365" class="icon" viewBox="0 0 1024 1024" version="1.1" xmlns="http://www.w3.org/2000/svg" p-id="18941" xmlns:xlink="http://www.w3.org/1999/xlink" width="200" height="200"><path d="M750.67 960H273.33c-33.14 0-60-26.86-60-60V736h-74.67C101.33 736 64 706.14 64 661.33V288c0-37.33 29.9-74.67 74.67-74.67h74.67V124c0-33.14 26.86-60 60-60h477.33c33.14 0 60 26.86 60 60v89.33h74.67c37.33 0 74.67 29.86 74.67 74.67v373.33c0 37.33-29.9 74.67-74.67 74.67h-74.67v164c0 33.14-26.87 60-60 60zM288 586.67v298.67h448V586.67H288zM273.33 512h477.33c33.14 0 60 26.86 60 60v89.33h74.67V288H138.67v373.33h74.67V572c-0.01-33.14 26.86-60 59.99-60zM288 138.67v74.67h448v-74.67H288z" p-id="18942"></path></svg>