<?xml version="1.0" standalone="no"?><!DOCTYPE svg PUBLIC "-//W3C//DTD SVG 1.1//EN" "http://www.w3.org/Graphics/SVG/1.1/DTD/svg11.dtd"><svg t="1701828712345" class="icon" viewBox="0 0 1024 1024" version="1.1" xmlns="http://www.w3.org/2000/svg" p-id="3032" xmlns:xlink="http://www.w3.org/1999/xlink" width="200" height="200"><path d="M512 222.171a460.8 460.8 0 0 1 334.994 141.532 493.714 493.714 0 0 1 83.383 116.663 68.937 68.937 0 0 1 0 63.268 493.714 493.714 0 0 1-83.383 116.663A460.8 460.8 0 0 1 512 801.83a460.8 460.8 0 0 1-334.994-141.532 493.714 493.714 0 0 1-83.383-116.663 68.937 68.937 0 0 1 0-63.268 493.714 493.714 0 0 1 83.383-116.663A460.8 460.8 0 0 1 512 222.17m0-73.142A536.869 536.869 0 0 0 124.343 313.6a569.783 569.783 0 0 0-95.817 134.034 143.36 143.36 0 0 0 0 130.195 569.783 569.783 0 0 0 95.817 133.302 540.526 540.526 0 0 0 775.314 0 569.783 569.783 0 0 0 95.817-134.034 143.36 143.36 0 0 0 0-130.194 569.783 569.783 0 0 0-95.817-134.034A536.869 536.869 0 0 0 512 148.297z" p-id="3033"></path><path d="M512 420.571A91.429 91.429 0 1 1 420.571 512 91.429 91.429 0 0 1 512 420.571m0-73.142A164.571 164.571 0 1 0 676.571 512 164.571 164.571 0 0 0 512 347.429z" p-id="3034"></path></svg>