<?xml version="1.0" standalone="no"?><!DOCTYPE svg PUBLIC "-//W3C//DTD SVG 1.1//EN" "http://www.w3.org/Graphics/SVG/1.1/DTD/svg11.dtd"><svg t="1701828698466" class="icon" viewBox="0 0 1024 1024" version="1.1" xmlns="http://www.w3.org/2000/svg" p-id="2894" xmlns:xlink="http://www.w3.org/1999/xlink" width="200" height="200"><path d="M950.955 264.546c12.347 10.966 13.466 29.864 2.499 42.21-42.737 48.108-85.305 89.488-127.65 124.205v-0.024a29.942 29.942 0 0 1 5.864 5.15l112.656 128.414 0.502 0.587c10.347 12.415 8.958 30.888-3.263 41.607-12.415 10.889-31.307 9.653-42.198-2.76L786.71 475.52l-0.501-0.587a29.776 29.776 0 0 1-5.363-9.577v0.026c-37.212 26.468-74.236 47.768-111.03 63.944l0.001-0.027a29.85 29.85 0 0 1 3.467 7.501l0.203 0.698 46.003 165.593c4.42 15.91-4.896 32.391-20.808 36.81-15.678 4.355-31.91-4.624-36.611-20.108l-0.203-0.697-46.003-165.594a30.176 30.176 0 0 1-0.806-3.854v0.027c-58.082 17.616-115.54 22.357-172.22 14.4l-43.072 155.02-0.202 0.698c-4.702 15.484-20.934 24.463-36.612 20.109-15.912-4.42-25.228-20.9-20.808-36.81l42.18-151.817c-42.45-12.643-84.425-32.515-125.858-59.537L160.02 603.934c-10.89 12.414-29.783 13.65-42.198 2.76-12.221-10.718-13.61-29.19-3.262-41.606l0.501-0.587 94.749-107.98c-50.003-39.808-99.16-90.208-147.35-151.06-10.251-12.946-8.067-31.75 4.88-42.001 12.948-10.25 31.754-8.066 42.006 4.88 123.307 155.705 249.292 235.667 377.466 239.45 133.386 3.939 274.113-74.35 421.93-240.746 10.966-12.345 29.866-13.464 42.213-2.498z" fill="#333333" p-id="2895"></path></svg>