<?xml version="1.0" standalone="no"?><!DOCTYPE svg PUBLIC "-//W3C//DTD SVG 1.1//EN" "http://www.w3.org/Graphics/SVG/1.1/DTD/svg11.dtd"><svg t="1700962472090" class="icon" viewBox="0 0 1024 1024" version="1.1" xmlns="http://www.w3.org/2000/svg" p-id="2620" xmlns:xlink="http://www.w3.org/1999/xlink" width="200" height="200"><path d="M806.33856 370.41152h-593.2032c-69.87776 0.29696-126.45376 56.87296-126.75072 126.74048v400.36352c0.29696 69.8368 56.91392 126.33088 126.75072 126.47424h593.21344c69.8368-0.1536 126.44352-56.64768 126.75072-126.47424V497.152c-0.3072-69.86752-56.8832-126.44352-126.76096-126.74048zM561.55136 718.55104V849.92h-104.448V718.2848c-50.688-29.07136-68.21888-93.72672-39.15776-144.41472 29.07136-50.688 93.72672-68.21888 144.41472-39.15776 50.688 29.07136 68.21888 93.72672 39.15776 144.41472a105.877504 105.877504 0 0 1-39.15776 39.15776l-0.80896 0.26624z" p-id="2621"></path><path d="M788.66432 373.94432H707.072v-95.20128c-0.02048-108.9024-88.32-197.18144-197.2224-197.16096-108.88192 0.02048-197.14048 88.27904-197.16096 197.16096v95.20128h-81.59232v-95.20128C231.1168 124.7744 355.95264-0.02048 509.92128 0.01024 663.8592 0.04096 788.6336 124.81536 788.66432 278.75328v95.19104z" p-id="2622"></path></svg>