<?xml version="1.0" standalone="no"?><!DOCTYPE svg PUBLIC "-//W3C//DTD SVG 1.1//EN" "http://www.w3.org/Graphics/SVG/1.1/DTD/svg11.dtd"><svg t="1700728574775" class="icon" viewBox="0 0 1024 1024" version="1.1" xmlns="http://www.w3.org/2000/svg" p-id="2281" xmlns:xlink="http://www.w3.org/1999/xlink" width="200" height="200"><path d="M0.000853 182.826667a36.266667 36.266667 0 0 1 36.394667-36.522667h951.082667c20.096 0 36.394667 17.066667 36.394666 36.522667a36.266667 36.266667 0 0 1-36.394666 36.522666H36.39552A36.693333 36.693333 0 0 1 0.000853 182.826667zM329.174187 0h365.653333a36.522667 36.522667 0 1 1 0 73.045333h-365.653333a36.522667 36.522667 0 1 1 0-73.045333z m475.306666 913.834667V329.173333a36.522667 36.522667 0 1 1 73.088 0v584.661334c0 60.8-64.896 110.165333-146.218666 110.165333H292.52352c-80.810667 0-146.218667-49.493333-146.218667-110.165333V329.173333a36.522667 36.522667 0 1 1 73.045334 0v584.661334c0 15.146667 29.013333 36.992 73.173333 36.992h438.954667c44.544 0 73.045333-21.589333 73.045333-36.992z" p-id="2282"></path><path d="M402.34752 365.653333c20.224 0 36.48 16.426667 36.48 36.565334v365.653333a36.522667 36.522667 0 1 1-73.045333 0V402.346667a36.48 36.48 0 0 1 36.522666-36.608z m219.306667 0c20.266667 0 36.565333 16.426667 36.565333 36.565334v365.653333a36.522667 36.522667 0 1 1-73.045333 0V402.346667c0-20.224 16.384-36.608 36.522666-36.608z" p-id="2283"></path></svg>