<?xml version="1.0" standalone="no"?><!DOCTYPE svg PUBLIC "-//W3C//DTD SVG 1.1//EN" "http://www.w3.org/Graphics/SVG/1.1/DTD/svg11.dtd"><svg t="1699520521053" class="icon" viewBox="0 0 1024 1024" version="1.1" xmlns="http://www.w3.org/2000/svg" p-id="2378" xmlns:xlink="http://www.w3.org/1999/xlink" width="200" height="200"><path d="M166.78979478 63.22673222a103.56306132 103.56306132 0 0 0-103.56306253 103.56306256v690.42041044a103.56306132 103.56306132 0 0 0 103.56306253 103.56306253h690.42041044a103.56306132 103.56306132 0 0 0 103.56306253-103.56306253V166.78979478a103.56306132 103.56306132 0 0 0-103.56306253-103.56306253H166.78979478z m0-69.04204127h690.42041044a172.6051026 172.6051026 0 0 1 172.60510383 172.60510383v690.42041044a172.6051026 172.6051026 0 0 1-172.60510383 172.60510383H166.78979478a172.6051026 172.6051026 0 0 1-172.60510383-172.60510383V166.78979478a172.6051026 172.6051026 0 0 1 172.60510383-172.60510383z" p-id="2379"></path><path d="M235.83183485 63.22673222v310.6891852h552.3363303V63.22673222h69.04204007v321.32165968c0 32.24263308-30.89631367 58.40956682-69.04204007 58.40956681H235.83183485c-38.14572761 0-69.04204129-26.16693373-69.04204007-58.40956681V63.22673222h69.04204007z" p-id="2380"></path><path d="M641.45382742 156.00197518m32.36345629 0l0 0q32.36345629 0 32.36345741 32.36345743l0 97.09036998q0 32.36345629-32.36345741 32.36345629l0 0q-32.36345629 0-32.36345629-32.36345629l0-97.09036998q0-32.36345629 32.36345629-32.36345743Z" p-id="2381"></path></svg>