<?xml version="1.0" standalone="no"?><!DOCTYPE svg PUBLIC "-//W3C//DTD SVG 1.1//EN" "http://www.w3.org/Graphics/SVG/1.1/DTD/svg11.dtd"><svg t="1703470438488" class="icon" viewBox="0 0 1024 1024" version="1.1" xmlns="http://www.w3.org/2000/svg" p-id="3275" xmlns:xlink="http://www.w3.org/1999/xlink" width="200" height="200"><path d="M680.751155 64.042886l189.727049 236.729953a41.742238 41.742238 0 0 0 3.545231 4.117043v655.067232H149.881376V64.042886h530.869779m8.805896-64.042886H136.1579C108.367862 0 85.83849 25.159705 85.83849 56.037525v911.92495c0 30.87782 22.529372 56.037525 50.31941 56.037525h751.589011c27.790038 0 50.31941-25.159705 50.31941-56.037525V303.403172c0-16.353808-6.404289-31.907081-17.611794-42.657137L722.37903 13.494751A47.689078 47.689078 0 0 0 689.557051 0z" p-id="3276"></path><path d="M903.414545 335.424615H669.200563a32.021443 32.021443 0 0 1-32.021443-32.021443V38.883181a32.021443 32.021443 0 0 1 64.042886 0v232.498548h202.192539a32.021443 32.021443 0 0 1 0 64.042886zM401.13534 832.100067h-0.457449a27.446951 27.446951 0 0 1-25.845879-19.44159l-97.207951-320.21443a27.446951 27.446951 0 1 1 52.492294-16.010721l72.276971 238.216663 80.511056-239.017199a27.446951 27.446951 0 0 1 25.960241-18.641054h0.228725a27.675676 27.675676 0 0 1 25.960241 18.984141L613.163038 717.051597l80.854143-241.304445a27.446951 27.446951 0 1 1 52.034845 17.383069l-107.271834 320.214429a27.332589 27.332589 0 0 1-25.960241 18.755417h-0.114363A27.103864 27.103864 0 0 1 586.745347 813.115926l-78.338173-241.190083-81.311592 241.53317a27.561313 27.561313 0 0 1-25.960242 18.641054z" p-id="3277"></path></svg>