<?xml version="1.0" standalone="no"?><!DOCTYPE svg PUBLIC "-//W3C//DTD SVG 1.1//EN" "http://www.w3.org/Graphics/SVG/1.1/DTD/svg11.dtd"><svg t="1699326920903" class="icon" viewBox="0 0 1024 1024" version="1.1" xmlns="http://www.w3.org/2000/svg" p-id="3144" xmlns:xlink="http://www.w3.org/1999/xlink" width="200" height="200"><path d="M510.97901378 629.75374174c23.59612551 0 42.54109166-15.20135009 42.54109169-34.03287334l14.18036388-319.90900932c0-18.83152324-19.96595235-43.10830621-56.72145557-43.10830623s-56.72145555 24.27678297-56.72145552 43.10830623l14.18036388 319.90900932c0 18.83152324 18.94496615 34.03287333 42.54109164 34.03287334z" p-id="3145"></path><path d="M455.50279386 747.94661756a56.72145555 56.72145555 0 1 0 110.92755505-23.7565077 56.72145555 56.72145555 0 1 0-110.92755505 23.7565077Z" p-id="3146"></path><path d="M979.38479375 314.49589177c-25.52465501-60.46507162-62.1667153-114.69078313-108.67830884-161.20237668-46.62503647-46.62503647-100.85074797-83.15365384-161.20237668-108.67830884C646.8836213 18.06956506 580.51951831 4.68330154 512 4.68330154c-68.51951831 0-134.8836213 13.38626351-197.50410823 39.93190471-60.46507162 25.52465501-114.69078313 62.1667153-161.20237668 108.67830884-46.62503647 46.62503647-83.15365384 100.85074797-108.67830884 161.20237668C18.06956506 377.1163787 4.68330154 443.48048169 4.68330154 512S18.06956506 646.8836213 44.61520625 709.50410823c25.52465501 60.46507162 62.1667153 114.69078313 108.67830884 161.20237668s100.85074797 83.15365384 161.20237668 108.67830884c62.62048692 26.43219828 128.98458993 39.93190471 197.50410823 39.93190471 68.51951831 0 134.8836213-13.38626351 197.50410823-39.93190471 60.46507162-25.52465501 114.69078313-62.1667153 161.20237668-108.67830884s83.15365384-100.85074797 108.67830884-161.20237668c26.43219828-62.62048692 39.93190471-128.98458993 39.93190471-197.50410823S1005.93043494 377.1163787 979.38479375 314.49589177zM512 928.56236957c-229.72189499 0-416.56236957-186.84047459-416.56236957-416.56236957S282.27810501 95.43763043 512 95.43763043 928.56236957 282.27810501 928.56236957 512 741.72189499 928.56236957 512 928.56236957z" p-id="3147"></path></svg>