<?xml version="1.0" standalone="no"?><!DOCTYPE svg PUBLIC "-//W3C//DTD SVG 1.1//EN" "http://www.w3.org/Graphics/SVG/1.1/DTD/svg11.dtd"><svg t="1701944385965" class="icon" viewBox="0 0 1024 1024" version="1.1" xmlns="http://www.w3.org/2000/svg" p-id="3707" xmlns:xlink="http://www.w3.org/1999/xlink" width="200" height="200"><path d="M924.69819974 787.13213316l-86.94175407 0-140.86765218 0-167.28033697 0-171.68245108 0-151.87293751 0-107.85179619 0q-26.41268478 0-42.92061278-12.10581386t-22.56083492-30.81479892-0.55026427-41.26981996 24.21162773-44.57140559q40.71955571-44.02114131 85.84122553-92.44439672t92.44439674-97.94703942l92.44439674-99.04756794q47.3227269-49.52378397 90.24333968-95.74598232 19.80951358-20.91004212 47.32272691-30.81479893t56.67721943-9.35449252 57.22748369 12.65607813 48.97351971 34.11638451q75.93646876 79.23805435 158.47610869 171.68245108t172.78297963 198.09513588q20.91004212 25.31215625 28.61374186 50.07404824t2.75132133 44.02114129-22.01057067 31.36506319-43.47087703 12.10581386z" p-id="3708"></path></svg>