<?xml version="1.0" standalone="no"?><!DOCTYPE svg PUBLIC "-//W3C//DTD SVG 1.1//EN" "http://www.w3.org/Graphics/SVG/1.1/DTD/svg11.dtd"><svg t="1700634379074" class="icon" viewBox="0 0 1024 1024" version="1.1" xmlns="http://www.w3.org/2000/svg" p-id="2419" xmlns:xlink="http://www.w3.org/1999/xlink" width="200" height="200"><path d="M486.43413238 563.26659307c-9.87662782 0-20.85065871 1.09740309-32.92209272 2.19480616-44.99352671 3.29220927-89.98705339 9.87662782-132.78577392 20.85065871-106.44809974 27.43507726-183.26631608 72.42860396-227.16243967 132.78577393-19.75325563 26.33767417-35.11689889 65.8441854-47.18833289 114.12992138-7.68182164 29.62988344-13.16883709 61.45457306-17.55844945 93.27926267-1.09740309 10.9740309-3.29220927 20.85065871-3.29220926 30.72728652-1.09740309 5.48701545-1.09740309 9.87662782-1.09740308 12.07143401-1.09740309 17.55844944 10.9740309 31.82468962 28.53248032 34.01949578s31.82468962-10.9740309 34.01949582-28.53248033c0-2.19480618 0-5.48701545 1.09740307-10.97403093 1.09740309-8.77922473 2.19480618-18.65585254 3.29220928-28.53248031 4.38961236-29.62988344 9.87662782-59.25976687 16.46104635-86.69484414 9.87662782-40.60391433 23.04546489-73.52600704 36.21430199-92.18185957 35.11689889-47.18833287 99.86368122-85.59744104 193.14294389-109.74030905 38.40910816-9.87662782 80.11042559-16.46104635 121.811743-18.65585252 20.85065871-1.09740309 39.50651126-2.19480618 54.87015451-2.19480617 16.46104635 0 35.11689889 1.09740309 54.87015451 2.19480617 41.70131742 3.29220927 83.40263487 8.77922473 121.81174303 18.65585252 92.18185959 21.94806179 158.026045 60.35716996 192.0455408 107.54550285 14.26624017 18.65585254 26.33767417 50.48054215 36.21430196 92.18185959 6.58441853 27.43507726 12.07143399 57.0649607 16.46104635 86.69484412 1.09740309 9.87662782 2.19480618 19.75325563 3.29220928 28.53248036 1.09740309 5.48701545 1.09740309 8.77922473 1.09740309 10.97403089 1.09740309 17.55844944 16.46104635 29.62988344 34.01949579 28.53248036 17.55844944-1.09740309 29.62988344-16.46104635 28.53248035-34.01949581 0-2.19480618-1.09740309-6.58441853-1.09740307-12.07143398-1.09740309-8.77922473-2.19480618-19.75325563-4.38961238-30.72728654-4.38961236-31.82468962-9.87662782-63.64937923-17.55844946-93.27926266-12.07143399-48.28573598-27.43507726-86.69484412-47.18833286-113.03251829-43.89612361-60.35716996-121.81174302-105.35069666-228.25984276-132.78577392-42.79872052-10.9740309-87.79224722-17.55844944-132.78577394-20.85065873-12.07143399-1.09740309-23.04546489-1.09740309-32.92209271-2.19480618h-50.48054215s-1.09740309 0-1.09740307 1.09740311zM512.77180654 454.62368712c103.15589047 0 187.65592844-83.40263487 187.65592843-186.55852534s-84.50003795-186.55852535-187.65592843-186.55852536c-103.15589047 0-187.65592844 83.40263487-187.65592842 186.55852536s83.40263487 186.55852535 187.65592842 186.55852534z m0 62.55197614c-138.27278937 0-250.20790457-110.83771211-250.20790458-248.0130984 0-137.17538629 111.93511521-249.11050148 249.11050148-249.11050147 138.27278937 0 250.20790457 110.83771211 250.20790457 248.01309839 0 137.17538629-110.83771211 249.11050148-249.11050147 249.11050148z" p-id="2420"></path></svg>