<?xml version="1.0" standalone="no"?><!DOCTYPE svg PUBLIC "-//W3C//DTD SVG 1.1//EN" "http://www.w3.org/Graphics/SVG/1.1/DTD/svg11.dtd"><svg t="1710137126672" class="icon" viewBox="0 0 1024 1024" version="1.1" xmlns="http://www.w3.org/2000/svg" p-id="2740" xmlns:xlink="http://www.w3.org/1999/xlink" width="200" height="200"><path d="M518.58591413 946.22016447c-13.17182828 0-26.34365657-4.70422439-37.63379508-13.17182829l-5.64506927-4.7042244c-99.729557-82.79434921-334.94077631-277.54923881-431.84779866-360.34358797-18.81689754-15.99436292-29.16619119-38.57463997-29.16619119-62.09576191 0-22.58027706 9.40844878-44.21970923 27.28450144-60.21407214 103.4929365-88.43941846 383.86470991-321.76894802 440.31540255-367.87034702 15.05351803-13.17182828 38.57463997-15.99436292 57.3915375-8.46760389 19.75774242 8.46760389 31.98872583 26.34365657 31.98872586 48.92393362v201.34080372C667.23940476 336.55268399 972.07314499 422.16956785 1010.64778496 816.3835714v2.82253463c0 18.81689754-11.29013852 33.87041557-28.22534633 37.6337951-16.93520778 4.70422439-34.81126046-2.82253462-43.27886435-15.99436292-99.729557-147.71264573-288.83937732-153.35771499-367.870347-148.6534906v204.16333836c0 18.81689754-10.34929363 34.81126046-28.22534633 44.21970924-7.52675903 3.76337951-15.99436292 5.64506926-24.46196682 5.64506926z m-4.70422438-58.3323824c0.94084489 0 0.94084489 0.94084489 0 0l0.94084487-213.57178713c0-19.75774242 15.05351803-35.75210534 33.8704156-36.69295022 64.91829653-6.58591413 265.31825537-13.17182828 397.03653821 122.30983404-61.15491703-314.24218902-318.00556853-374.45626115-398.91822797-385.74639968h-1.88168975c-17.87605266-3.76337951-30.10703608-17.87605266-30.10703609-35.75210535V123.92174173C452.72677272 174.72736509 179.88175831 402.4118254 77.32966669 488.96955412c-5.64506926 5.64506926-7.52675903 12.2309834-7.52675901 16.93520778 0 7.52675903 3.76337951 14.11267315 9.40844878 18.81689754 96.90702236 81.85350433 331.17739681 276.60839392 430.90695379 359.40274312l3.7633795 3.76337951z m0.94084487-768.67026474z" p-id="2741"></path></svg>