<?xml version="1.0" standalone="no"?><!DOCTYPE svg PUBLIC "-//W3C//DTD SVG 1.1//EN" "http://www.w3.org/Graphics/SVG/1.1/DTD/svg11.dtd"><svg t="1710903230264" class="icon" viewBox="0 0 1024 1024" version="1.1" xmlns="http://www.w3.org/2000/svg" p-id="4224" xmlns:xlink="http://www.w3.org/1999/xlink" width="200" height="200"><path d="M533.884426 955.899996c0.25992-0.066515 0.520863-0.384763 0.780783-0.508583 7.196912-3.060709 14.090926-7.274684 20.034289-13.141298 0.055259-0.066515 0.055259-0.13303 0.124843-0.190335 0.055259-0.066515 0.12382-0.066515 0.190335-0.124843l317.67313-316.780807c24.870434-24.879644 25.073048-65.197908 0.1361-90.202395-24.880667-24.949228-65.264423-25.006534-90.202395-0.124843l-199.503776 191.83819 0-593.988316c0-35.218106-35.638685-63.794955-70.848605-63.794955S441.407222 97.457636 441.407222 132.676765l0 597.377506L239.241826 532.645203c-24.814152-25.074072-65.131393-25.25622-90.205465-0.508583-12.620435 12.440333-18.938328 28.892027-18.938328 45.356001 0 16.202007 6.181793 32.407084 18.431791 44.847417l315.954999 319.469032C483.185744 960.612321 510.7311 965.402417 533.884426 955.899996L533.884426 955.899996 533.884426 955.899996 533.884426 955.899996z" fill="#272536" p-id="4225"></path></svg>