<?xml version="1.0" standalone="no"?><!DOCTYPE svg PUBLIC "-//W3C//DTD SVG 1.1//EN" "http://www.w3.org/Graphics/SVG/1.1/DTD/svg11.dtd"><svg t="1700468045436" class="icon" viewBox="0 0 1024 1024" version="1.1" xmlns="http://www.w3.org/2000/svg" p-id="2161" xmlns:xlink="http://www.w3.org/1999/xlink" width="200" height="200"><path d="M88.896 228.736c15.04-25.6 29.248-30.848 77.824-30.848h80.384v389.76c0 67.712-7.04 76.096-89.28 81.344v23.808h257.216v-23.808c-83.968-5.056-91.072-14.528-91.072-81.344v-389.76h88.448c48.576 0 57.408 6.016 71.552 29.12 11.456 19.264 20.992 39.36 28.416 60.16l26.432-2.56a2338.88 2338.88 0 0 1-7.936-168.064H46.464c-2.624 48-7.936 118.4-13.248 170.624h26.432c14.656-32.512 18.688-41.216 29.248-58.432z m536.384-107.52h366.72v64H625.28v-64z m0 252.096h366.72v64H625.28v-64z m0 252.032h366.72v64H625.28v-64zM32 848.896h960v64H32v-64z" fill="#888888" p-id="2162"></path></svg>