<?xml version="1.0" standalone="no"?><!DOCTYPE svg PUBLIC "-//W3C//DTD SVG 1.1//EN" "http://www.w3.org/Graphics/SVG/1.1/DTD/svg11.dtd"><svg t="1710484115995" class="icon" viewBox="0 0 1024 1024" version="1.1" xmlns="http://www.w3.org/2000/svg" p-id="16111" xmlns:xlink="http://www.w3.org/1999/xlink" width="200" height="200"><path d="M699.7 551.9c-34.5-23.6-72.7-41.6-113-53.4 74.5-39.1 125.3-115.9 125.3-204C711.9 166.9 605.4 63 474.4 63S236.9 166.9 236.9 294.6c0 88 50.6 164.6 124.9 203.8C200.5 545.7 82.6 691.6 82.6 864c0 12.1 10.1 22 22.6 22 12.5 0 22.6-9.9 22.6-22 0-186.3 155.5-337.9 346.7-337.9 72.8 0 141.4 21.7 199.2 61.7 9.6 6.6 22.5 5.4 30-3.5 8.2-9.9 6.7-25.1-4-32.4zM282 294.6C282 191.1 368.3 107 474.4 107c106.1 0 192.4 84.1 192.4 187.6 0 103.4-86.3 187.6-192.4 187.6C368.3 482.1 282 398 282 294.6z" fill="" p-id="16112"></path><path d="M914.9 737.6l-27.1-5.9c-1.9-5.4-4.2-10.9-7.2-16.8l14.7-23.9c7.3-11.1 10-27-0.6-37.4l-16.3-16c-4.8-4.7-11.7-7.3-19.4-7.3-6.9 0-14.1 2.2-19.3 5.8l-24 14.9c-5.8-2.8-11.4-5.1-17.3-7l-6-26.7c-2.4-12.7-13.8-25.9-28.6-25.9h-23.2c-15.6 0-24.5 14-27.3 25.9l-6.8 26.5c-6.6 2.3-12.8 4.8-18.5 7.6l-24.4-15.1c-11.4-7.9-29.7-7.7-38.9 1.4l-16.3 16c-10.6 10.4-7.9 26.3-0.7 37.3l15.6 25.4c-2.6 5.3-4.8 10.4-6.6 15.4l-27 5.8c-13.1 2.4-26.6 13.5-26.6 28.1v22.6c0 14.3 13.3 23.8 26.5 26.8l27.7 6.7c1.7 4.7 3.7 9.3 6 14L607.8 861c-7.3 11.2-10 27.1 0.6 37.4l16.3 16c4.8 4.7 11.6 7.3 19.3 7.3 7.1 0 14.3-2.2 19.5-5.8l24.6-15.3c6.2 3 12.4 5.6 18.8 7.8l6.8 26.3c2.9 13 12.5 26.1 27.4 26.1h23.1c15.1 0 26.4-13.3 28.6-25.9L799 908c5.7-1.9 11.2-4.1 16.8-6.9l23.9 14.7c5.3 3.7 12.6 5.9 19.5 5.9 7.9 0 14.6-2.5 19.4-7.3l16.3-16c10.6-10.3 7.9-26.2 0.7-37.3l-14.8-24c2.5-5.1 4.8-10.2 6.7-15.4l27.6-6.7c12.2-2.8 26.5-11.5 26.5-26.9v-22.6c-0.2-14.4-13.7-25.5-26.7-27.9zM866 799.4l-3.9 11.7c-1.8 5.3-4 10.6-7 16.2l-5.7 11 22.8 37.3c1.3 2.1 1.9 4 2.1 5.1l-15.4 14.6c-1.2 0-3.1-0.6-3.6-0.8l-38.3-24-11.7 5.9c-5.5 2.8-11.5 5.3-17.4 7.2l-12.5 3.9-9.6 42.9c-0.3 1.7-1.9 3.7-1.9 3.9h-21.6c-0.7-0.9-1.8-2.7-2.5-5.6l-10.5-40.9-12.3-4c-6.2-1.9-12.6-4.4-18.8-7.6l-11.7-6.1-37.5 23.2-1.2 0.7c-0.8 0.6-2.6 1.2-4.1 1.5l-15.2-14.9c0.2-1.1 0.8-3.1 2.3-5.4l23.5-38.1-5.7-11.1c-2.5-5-4.6-10-6.2-14.9l-4-11.8-42.7-10.5c-2.6-0.6-4.4-1.6-5.3-2.2l-0.2-20.1c0.4-0.6 2.3-2.2 4.2-2.5l43.4-9.5 4-12.3c1.7-5.3 4-10.5 6.7-16.1l5.8-11.1-23.7-38.4c-1.4-2-1.9-4-2.1-5.1l15.3-14.4c1.5 0 3.2 0.4 3.6 0.7l39.1 24.4 11.9-6.1c5.6-3 11.9-5.6 18.7-7.6l12.2-3.9 10.6-41.4c0.6-2.4 1.6-4.3 2.3-5.2l20.7-0.2c0.7 0.4 2.1 2.1 2.7 4.3l9.7 42.7 12.4 3.9c5.8 1.7 11.6 4.1 17.6 7.1l11.7 6 36.7-22.9h0.4l0.7-0.7c0.9-0.6 2.7-1.1 4.4-1.5l15.2 14.8c-0.2 1.1-0.7 3.1-2.3 5.5l-22.6 36.8 5.7 11.2c3 5.5 5.4 11.1 7.4 17.1l4 12.4 42.6 9.3 0.9 0.2c1.9 0.3 3.9 1.9 4 1.6v21c-0.9 0.6-2.8 1.7-5.7 2.3L866 799.4z" fill="" p-id="16113"></path><path d="M752.3 699.4c-43.3 0-78.5 34.4-78.5 76.6 0 42.3 35.2 76.7 78.5 76.7s78.5-34.4 78.5-76.7c0-42.2-35.2-76.6-78.5-76.6z m51.6 76.9c0 27.5-23.1 49.9-51.5 49.9s-51.5-22.4-51.5-49.9c0-27.6 23.1-50.1 51.5-50.1s51.5 22.5 51.5 50.1z" fill="" p-id="16114"></path></svg>