<?xml version="1.0" standalone="no"?><!DOCTYPE svg PUBLIC "-//W3C//DTD SVG 1.1//EN" "http://www.w3.org/Graphics/SVG/1.1/DTD/svg11.dtd"><svg t="1710484304859" class="icon" viewBox="0 0 1025 1024" version="1.1" xmlns="http://www.w3.org/2000/svg" p-id="37180" xmlns:xlink="http://www.w3.org/1999/xlink" width="200.1953125" height="200"><path d="M174.08 925.696c-13.824 0-25.6-10.24-27.136-24.064-0.512-3.584-9.728-87.04 32.768-169.472 30.208-58.368 116.736-83.456 179.712-101.888 14.336-4.096 26.112-7.68 34.816-10.752l3.072-1.024 1.024-3.072c1.024-3.072 3.072-11.264 1.536-28.16l-0.512-3.072-2.56-1.536c-67.584-40.448-89.088-151.552-90.624-204.8v-1.024l-0.512-1.024c-30.208-76.8-26.112-145.408 11.264-188.416 19.456-22.528 45.568-34.816 73.216-34.816h3.584l2.048-3.072C421.376 108.032 459.264 87.04 506.88 87.04h6.144c46.08 1.536 94.208 22.016 132.608 38.912 26.624 11.264 49.664 20.992 59.904 20.992h1.536l1.536-0.512c13.824-5.632 29.696 0.512 35.84 14.336 1.536 3.584 2.048 7.168 2.048 10.752 0 29.696-9.728 55.808-28.16 76.8l-2.56 3.072 1.536 3.584c17.408 41.984 10.752 97.792 0.512 122.368-2.048 5.12-4.608 9.728-7.68 13.824l-1.024 1.536v2.048c-3.072 94.208-30.72 159.232-80.896 188.416l-3.072 1.536-0.512 3.072c-0.512 8.192-0.512 14.848 0 18.944 0.512 6.144-2.56 11.776-8.192 14.848-6.656 3.584-15.872 7.168-26.112 9.728-8.704 2.048-17.92-3.584-18.944-12.8-2.048-16.384-1.024-35.328 2.56-56.832 1.536-9.728 8.192-17.408 17.408-20.48 40.448-15.36 64-74.24 64-161.28 0-8.704 4.096-17.408 11.776-22.528l1.536-1.024 0.512-2.048c7.168-19.968 8.192-72.192-8.704-88.576-10.752-10.752-10.752-28.16 0-38.4 1.536-1.536 3.072-2.56 5.12-4.096 7.168-4.096 12.8-9.728 16.896-15.872l5.12-7.168-8.704-2.56c-16.384-4.608-34.304-12.288-53.76-20.48C567.808 153.088 533.504 143.36 506.88 143.36c-33.28 0-56.32 16.384-73.216 51.712-4.608 9.728-14.336 15.872-24.576 15.872-2.048 0-4.608-0.512-6.656-1.024-3.584-1.024-7.168-1.536-10.752-1.536-12.8 0-24.576 5.632-33.792 16.384-23.552 25.6-23.552 77.312 0.512 136.192 1.536 3.584 2.048 7.168 2.048 10.752-1.024 38.912 20.48 148.992 72.704 167.936 9.216 3.072 15.872 11.264 17.408 20.992 10.24 57.856-1.024 100.352-33.28 113.152-11.264 4.608-25.6 8.704-43.008 13.824-47.616 13.824-121.856 31.744-141.312 69.12-34.816 68.096-27.136 137.216-27.136 138.24 1.536 14.848-14.336 28.672-29.184 30.208-0.512 0.512-1.536 0.512-2.56 0.512z" fill="#2c2c2c" p-id="37181"></path><path d="M460.288 463.872s23.04-3.584 51.2-3.584 53.248 3.584 53.248 3.584 10.752 4.608 7.68 10.752c-6.656 13.824-28.672 37.376-61.952 37.376-32.768 0-46.08-22.528-55.296-36.864-3.584-6.656 5.12-11.264 5.12-11.264zM926.208 749.056l-128-128c-11.264-11.264-29.696-11.264-40.96 0s-11.264 29.696 0 40.96l78.336 78.336h-253.44c-15.872 0-29.184 12.8-29.184 29.184s12.8 29.184 29.184 29.184h253.44l-78.336 78.336c-11.264 11.264-11.264 29.696 0 40.96 5.632 5.632 13.312 8.704 20.48 8.704s14.848-3.072 20.48-8.704l128-128c5.632-5.632 8.704-12.8 8.704-20.48s-3.072-15.36-8.704-20.48z" fill="#2c2c2c" p-id="37182"></path></svg>