<?xml version="1.0" standalone="no"?><!DOCTYPE svg PUBLIC "-//W3C//DTD SVG 1.1//EN" "http://www.w3.org/Graphics/SVG/1.1/DTD/svg11.dtd"><svg t="1710380282157" class="icon" viewBox="0 0 1024 1024" version="1.1" xmlns="http://www.w3.org/2000/svg" p-id="75132" xmlns:xlink="http://www.w3.org/1999/xlink" width="200" height="200"><path d="M690.60266633 80.469333l307.2 238.933334 8.533334 8.533333s0 8.533333-8.533334 8.533333l-307.2 230.4h-8.533333-8.533333c-8.533333 0-8.533333-8.533333 0-17.066666l59.733333-153.6h-648.533333c-8.533333 0-8.533333-8.533333-8.533334-8.533334v-128c0-8.533333 8.533333-8.533333 8.533334-8.533333h648.533333l-59.733333-153.6v-17.066667c8.533333-8.533333 8.533333-8.533333 17.066666 0z m-332.8 375.466667h-17.066666l-298.666667 238.933333c-8.533333 0-8.533333 0-8.533333 8.533334 0 0 0 8.533333 8.533333 8.533333l298.666667 238.933333h17.066666c8.533333 0 8.533333-8.533333 0-17.066666l-59.733333-153.6h648.533333c8.533333 0 8.533333-8.533333 8.533334-8.533334v-128c0-8.533333-8.533333-8.533333-8.533334-8.533333h-648.533333l59.733333-153.6c8.533333-17.066667 8.533333-17.066667 0-25.6z" p-id="75133"></path></svg>